<svg xmlns="http://www.w3.org/2000/svg" xmlns:xlink="http://www.w3.org/1999/xlink" width="671.66" height="191.815" viewBox="0 0 671.66 191.815">
  <defs>
    <clipPath id="clip-path">
      <rect id="Rectangle_185" data-name="Rectangle 185" width="671.66" height="84.116" fill="none"/>
    </clipPath>
  </defs>
  <g id="Group_22" data-name="Group 22" transform="translate(116.976 0)">
    <g id="Group_22-2" data-name="Group 22" transform="translate(0 0)">
      <path id="Path_81" data-name="Path 81" d="M724.77-182.018c-2.654-.23-4.156-1.615-4.271-4.271.115-2.539,1.617-3.923,4.271-4.271a4.5,4.5,0,0,1,4.269,4.271C728.7-183.633,727.309-182.248,724.77-182.018Zm7.5,49.294q-.518,3.808-4.156,4.154c-2.654-.115-4.041-1.615-4.271-4.154.23-2.541,1.617-3.926,4.271-4.156A4.468,4.468,0,0,1,732.274-132.723Zm-1.963-79.425c.115-2.654,1.618-4.154,4.271-4.5q3.808.522,4.156,4.5-.522,3.812-4.156,4.156C731.929-208.222,730.541-209.607,730.311-212.148Zm5.887,45.484a4.381,4.381,0,0,1,4.156,4.156c-.348,2.657-1.615,3.926-4.156,4.271a4.258,4.258,0,0,1-4.269-4.271A4.238,4.238,0,0,1,736.2-166.665Zm4.156,15.123c-.348,2.539-1.615,3.923-4.156,4.156a4.163,4.163,0,0,1-4.269-4.156c.115-2.657,1.615-4.041,4.269-4.271C738.854-155.468,740.124-154.2,740.354-151.542Zm0,10.851c-.348,2.541-1.615,3.926-4.156,4.156a4.161,4.161,0,0,1-4.269-4.156c.23-2.654,1.73-3.923,4.269-4.271C738.854-144.614,740.124-143.344,740.354-140.691Zm18.24-47.213-15.241,10.043v-5.311l3.465-2.193v-16.392h11.775Zm54.139-20.433H794.956v38.555l-14.084-8.31v-30.246h-4.5v25.165L756.4-169.782v-5.308l6-3.926v-29.322H744.51v-4.387h26.2v-7.619h16.853v7.619h25.165Zm-2.654,65.569v9.119l-6.35,5.659H752.244v-3h38.9v-8.658H753.629l-6.465-5.656v-9.119h43.984v-8.658H747.164V-166.2h62.915v9.119l-6.35,5.889H766.21v8.425Zm.46-42.6,3.348,2.193v5.311L798.652-187.9v-13.854h11.887Z" transform="translate(-720.499 222.651)" fill="#fff"/>
      <path id="Path_82" data-name="Path 82" d="M815.553-140.73l-10.736,10.849a5.676,5.676,0,0,1-3.7,1.5H763.835c-1.385,0-1.615-.578-.809-1.5l10.736-10.849a5.837,5.837,0,0,1,3.811-1.733h3.578q1.9.173.694,1.733l-3.7,3.808q-1.386,1.559.694,1.73h1.151a6.409,6.409,0,0,0,3.926-1.73l5.426-5.656a5.508,5.508,0,0,1,3.811-1.617h9.464c1.272.115,1.387.578.694,1.617l-5.426,5.656q-1.387,1.559.693,1.73h1.27a5.841,5.841,0,0,0,3.808-1.73l3.7-3.808a6.4,6.4,0,0,1,3.926-1.733h3.578Q816.764-142.29,815.553-140.73ZM853.185-204.8l-3.7,3.923c-.921,1.039-.691,1.5.694,1.618h2.426c1.267.115,1.384.691.576,1.615l-3.7,3.811q-1.382,1.559.694,1.73h2.426c1.267.115,1.384.694.576,1.618l-3.7,3.808c-.921,1.039-.691,1.5.694,1.5h2.426c1.267.233,1.384.809.576,1.733l-3.7,3.811a6.117,6.117,0,0,1-3.805,1.73H795a5.975,5.975,0,0,0-3.811,1.618l-3.811,3.808c-.806,1.039-.576,1.5.693,1.618h68.107c1.157.115,1.5.576.694,1.615l-3.811,3.926a5.959,5.959,0,0,1-3.805,1.615H795a5.731,5.731,0,0,0-3.811,1.618l-3.811,3.808c-.806,1.039-.576,1.5.693,1.618h64.532c1.267.23,1.384.809.576,1.73l-3.7,3.811q-1.382,1.559.694,1.733h2.426c1.267.115,1.384.576.576,1.385l-3.7,4.041c-.921.921-.691,1.385.694,1.5h2.426c1.267.23,1.384.806.576,1.733l-3.7,3.808q-1.382,1.559.694,1.73h2.426c1.267.115,1.384.694.576,1.387l-3.7,3.923a5.842,5.842,0,0,1-3.805,1.5H812.9c-1.269-.118-1.5-.578-.576-1.5l3.69-3.923a7.966,7.966,0,0,1,3.7-1.387h4.85a5.846,5.846,0,0,0,3.808-1.73l3.926-3.808q1.036-1.563-.694-1.733h-2.539c-1.154-.115-1.384-.578-.693-1.5L832.291-148q1.036-1.213-.694-1.385H767.413q-1.9-.177-.694-1.733l3.811-3.811q1.04-1.559-.694-1.73h-2.424c-1.27-.115-1.5-.578-.694-1.618l3.811-3.808c.693-1.039.463-1.5-.694-1.618h-2.424c-1.27-.115-1.5-.576-.694-1.615l3.811-3.926c.693-1.039.463-1.5-.694-1.615h-2.424c-1.27-.115-1.5-.578-.694-1.618l3.811-3.808c.693-1.039.463-1.5-.694-1.618h-2.424q-1.9-.173-.694-1.73l3.811-3.811q1.04-1.559-.694-1.733h-2.424c-1.27,0-1.5-.461-.694-1.5l3.811-3.808c.693-1.039.463-1.618-.694-1.618h-2.424q-1.9-.173-.694-1.73l3.811-3.811c.693-1.039.463-1.5-.694-1.615h-2.424c-1.27-.115-1.5-.579-.694-1.618l3.811-3.923c.693-1.039.463-1.5-.694-1.618h-2.424c-1.27-.115-1.5-.578-.694-1.615l3.811-3.811a5.743,5.743,0,0,1,3.811-1.618h16.392a5.328,5.328,0,0,0,3.693-1.73l3.7-3.808a5.637,5.637,0,0,1,3.923-1.733h22.972q1.9.173.694,1.733l-3.693,3.808c-.924,1.039-.693,1.615.576,1.73h30.015c1.267.118,1.384.694.576,1.618l-3.7,3.811c-.921,1.036-.691,1.5.694,1.615h2.426C853.876-206.3,853.993-205.723,853.185-204.8Zm-21.239-1.618H795a5.976,5.976,0,0,0-3.811,1.618l-3.811,3.923c-.806,1.039-.576,1.5.693,1.618h36.94a5.738,5.738,0,0,0,3.811-1.618l3.923-3.923C833.327-205.838,833.1-206.3,831.945-206.417Zm0,14.314H795a5.433,5.433,0,0,0-3.811,1.618l-3.811,3.808c-.806,1.039-.576,1.5.693,1.5h36.94a5.137,5.137,0,0,0,3.811-1.5l3.923-3.808C833.327-191.524,833.1-192.1,831.945-192.1Z" transform="translate(-649.915 222)" fill="#fff"/>
      <path id="Path_83" data-name="Path 83" d="M893.887-133.818h4.387v4.041h-23.32l-4.732-26.437h-4.847v29.091H838.821v-29.091h-4.735l-4.845,26.437h-23.32v-4.041h4.271l4.039-22.4h-8.31v-3.923h32.9v-6.235h26.553v6.235h32.9v3.923h-8.428Zm-68.34-60.028h-11.43v-7.964h-7.964v-11.43h11.427v8.082h7.967Zm0,16.162h-7.967v8.08H806.152V-181.15h7.964v-7.964h11.43Zm-11.43-27.474v-4.85H809.5v4.85ZM809.5-177.684v4.617h4.617v-4.617Zm8.08-24.126v4.732h4.735v-4.732Zm0,16.044v4.617h4.735v-4.617ZM873.917-169.6H830.281v-43.636h8.079V-221.2h11.43v7.964h24.126Zm-40.288-40.4v4.85h4.732v-4.85Zm0,8.2v4.732h4.732v-4.732Zm0,7.964v4.732h4.732v-4.732Zm0,8.08v4.617h4.732v-4.617Zm0,8.082v4.617h4.732v-4.617Zm12.812-35.556v-4.732h-4.732v4.732Zm0,8.082v-4.85h-4.732v4.85Zm-4.732,3.348v4.732h20.664v-4.732Zm4.732,12.7v-4.732h-4.732v4.732Zm-4.732,3.347v4.617h20.664v-4.617Zm4.732,12.7v-4.617h-4.732v4.617Zm8.079-32.091v-4.85H849.79v4.85Zm0,16.044v-4.732H849.79v4.732Zm0,16.047v-4.617H849.79v4.617Zm3.232-36.941v4.85h4.62v-4.85Zm0,16.162v4.732h4.62v-4.732Zm0,16.162v4.617h4.62v-4.617Zm7.967-32.324v4.85h4.734v-4.85Zm0,8.2v4.732h4.734v-4.732Zm0,7.964v4.732h4.734v-4.732Zm0,8.08v4.617h4.734v-4.617Zm0,8.082v4.617h4.734v-4.617Zm32.206-24.126h-7.964v7.964H878.534v-11.312H886.5v-8.082h11.427Zm0,32.206H886.5v-8.08h-7.965v-11.43h11.427v7.964h7.964Zm-16.044-32.206v4.732H886.5v-4.732ZM886.5-181.15v-4.617h-4.617v4.617Zm3.463-28.858v4.85h4.617v-4.85Zm0,32.324v4.617h4.617v-4.617Z" transform="translate(-577.157 221.205)" fill="#fff"/>
      <path id="Path_84" data-name="Path 84" d="M941.618-195.8v42.481a20.79,20.79,0,0,1-1.269,6.58l-.578,1.269a26.751,26.751,0,0,1-3.578,5.541l-6.234,6a17.267,17.267,0,0,1-5.541,3.693l-1.154.578a21.07,21.07,0,0,1-6.465,1.036H873.971a21.233,21.233,0,0,1-6.58-1.036l-1.042-.578a16.118,16.118,0,0,1-5.538-3.693l-6.12-6a29.532,29.532,0,0,1-3.808-5.541l-.348-1.269a20.892,20.892,0,0,1-1.385-6.58V-195.8a21.609,21.609,0,0,1,1.385-6.465l.348-1.154a19.782,19.782,0,0,1,3.808-5.541l6.12-6.35a22.872,22.872,0,0,1,5.538-3.581l1.042-.461a20.214,20.214,0,0,1,6.58-1.385H916.8a20.88,20.88,0,0,1,6.465,1.385l1.154.461a35.077,35.077,0,0,1,5.541,3.581l6.234,6.35a25.249,25.249,0,0,1,3.578,5.541l.578,1.154A21.38,21.38,0,0,1,941.618-195.8Zm-13.045-15.238H862.081a3.372,3.372,0,0,0-3.348,3.463v66.262a3.248,3.248,0,0,0,3.348,3.232h66.493a3.28,3.28,0,0,0,3.463-3.232v-66.262A3.549,3.549,0,0,0,928.573-211.034Zm-.693,20.548v3.923H862.887v-3.923H882.4v-6.7H865.313v-4.041H882.4V-207h25.862v5.774h17.2v4.041h-17.2v6.7Zm-.115,28.513v4.85l-7.5,5.193,7.5,5.31v4.847l-19.507-13.62v13.62H882.4v-13.62L863-141.772v-4.847L882.4-160.243v-2.769H865.313v-18.7h60.143v18.7h-17.2v2.769l8.655,6Zm-38.9-15.7v10.733h13.047v-10.733Z" transform="translate(-504.618 222)" fill="#fff"/>
    </g>
  </g>
  <g id="Group_282" data-name="Group 282" transform="translate(0 107.699)">
    <g id="Group_281" data-name="Group 281" clip-path="url(#clip-path)">
      <path id="Path_411" data-name="Path 411" d="M89.918,38.318l5.264-12.568a34.175,34.175,0,0,0,2.577-13.323c0-3.33-.643-6.23-1.824-7.733l.214-1.934a64.1,64.1,0,0,0,11.708,1.074,50.959,50.959,0,0,0,11.5-1.074l.429,1.934c-2.9,4.728-4.618,7.733-12.678,25.353L84.869,77.958H83.042L60.695,31.12l-1.072-2.255-23.1,49.094H34.592L12.678,31.12C5.264,15.327,3.008,10.173,0,4.8L.431,2.759C4.192,3.833,12.568,3.833,17.4,3.833A103.156,103.156,0,0,0,34.916,2.759l.429,1.827c-1.72,1.4-2.472,4.189-2.472,6.876,0,4.189,2.472,10.1,4.728,15.362l4.3,10.527,4.728-11.6c1.934-4.728,3.439-8.917,3.439-13.323,0-3.33-.645-6.23-2.365-7.733l.429-1.934a128.824,128.824,0,0,0,17.3,1.074c4.832,0,11.923,0,17.293-1.074l.217,1.827c-1.5,1.4-2.255,4.189-2.255,6.876,0,4.082,2.363,10.206,4.513,15.362Z" transform="translate(0 4.117)" fill="#fff"/>
      <path id="Path_412" data-name="Path 412" d="M76.172,67.562c-20.092,0-31.693-12.032-31.693-28.037,0-16.436,11.5-28.792,31.693-28.792S107.863,23.2,107.863,39.525c0,15.791-11.494,28.037-31.691,28.037m0-42c-6.34,0-8.164,6.016-8.164,13.966,0,7.412,1.61,13.214,8.164,13.214,6.445,0,8.055-5.8,8.055-13.214,0-8.164-1.824-13.966-8.055-13.966" transform="translate(66.371 16.016)" fill="#fff"/>
      <path id="Path_413" data-name="Path 413" d="M98.21,11.375c-1.077,2.472-1.827,5.48-2.47,12.139,5.692-7.2,12.568-11.065,19.98-11.065,12.032,0,18.908,8.917,19.23,22.669.431,16.436.645,17.51,5.052,30.4.212.536-.217,1.181-.431,1.824A81.643,81.643,0,0,0,125.5,66.27a82.93,82.93,0,0,0-14.181,1.074l-.431-1.824a68.591,68.591,0,0,0,4.192-22.562c0-9.239-2.472-12.568-7.307-12.568-6.23,0-10.958,5.371-10.958,13.642a60.265,60.265,0,0,0,4.082,21.488c.217.536-.107,1.181-.214,1.824A89.672,89.672,0,0,0,86.392,66.27,89.694,89.694,0,0,0,72.1,67.344l-.429-1.824c2.9-5.049,4.618-14.073,4.618-23.526,0-8.381-1.4-16.974-4.618-23.312l.429-1.934A108.931,108.931,0,0,0,96.919,9.872Z" transform="translate(106.954 14.731)" fill="#fff"/>
      <path id="Path_414" data-name="Path 414" d="M100.337,55c0-16.757,10.422-28.254,25.246-28.254a30.55,30.55,0,0,1,14.931,3.978c-.86-8.167-2.47-17.081-4.508-22.347l.426-1.827c7.629-.964,20.09-3.115,27.5-6.552l1.4,1.505c-2.255,11.172-4.082,33.193-4.082,42.97,0,10.527,1.934,30.941,4.621,35.883l-.538,1.717A66.827,66.827,0,0,0,152.977,81a57.881,57.881,0,0,0-11.494,1.074l-.538-1.717c.431-2.044.86-4.3,1.184-6.554-4.085,4.942-9.024,9.777-18.37,9.777-13.752,0-23.422-11.065-23.422-28.578m40.608-.321V53.607c-.214-6.766-2.577-11.387-8.272-11.387-5.48,0-8.915,4.4-8.915,12.354,0,7.521,3.115,13.645,9.022,13.645,6.123,0,8.164-5.909,8.164-13.538" transform="translate(149.722)" fill="#fff"/>
      <path id="Path_415" data-name="Path 415" d="M152.931,42.749c.964,6.981,4.94,11.063,13.318,11.063,5.909,0,13.859-1.931,19.554-7.412l1.505.753c-1.612,5.478-1.936,11.172-4.085,14.073-3.115,4.189-13.428,6.552-22.559,6.552-20.518,0-32.658-12.247-32.658-28.575,0-16.114,11.818-28.468,31.155-28.468,21.485,0,29.542,15.04,29.542,32.015ZM151.962,31.9h16.546c-.753-5.156-3.654-8.917-8.167-8.917-4.294,0-7.626,3.437-8.379,8.917" transform="translate(191.011 16.017)" fill="#fff"/>
      <path id="Path_416" data-name="Path 416" d="M154.039,65.519c2.9-5.049,4.621-14.181,4.621-23.633,0-8.381-1.4-16.974-4.621-23.312l.431-1.827a116.131,116.131,0,0,0,25.675-6.876l1.288,1.5c-1.717,4.3-2.9,9.131-2.148,13.43,4.942-7.519,9.455-12.461,17.3-12.461,5.049,0,8.488,3.008,8.167,4.725L201.63,38.985l-2.148.214c-2.9-6.123-4.942-8.81-10.527-8.81-6.554,0-8.81,10.208-8.81,16.007l-.107.107a58.6,58.6,0,0,0,4.3,19.015l-.538,1.827a93.453,93.453,0,0,0-14.609-1.074,94.853,94.853,0,0,0-14.716,1.074Z" transform="translate(229.855 14.729)" fill="#fff"/>
      <path id="Path_417" data-name="Path 417" d="M174.855,80.294c2.9-9.241,4.513-25.891,4.513-35.99,0-9.453-1.291-27.5-4.513-36.094l.431-1.827c7.412-.967,19.337-3.008,26.749-6.34l1.181,1.4c-2.363,11.065-3.868,32.336-3.868,42.973,0,10.741,1.722,30.938,4.3,35.88l-.321,1.717a92.031,92.031,0,0,0-28.04,0Z" transform="translate(260.917 0.064)" fill="#fff"/>
      <path id="Path_418" data-name="Path 418" d="M225.169,57.7c-4.62,5.585-10.634,10.2-21.164,10.2-11.815,0-16-8.272-16-15.791,0-14.073,13.966-16.867,22.021-17.941,10.313-1.288,14.181-1.4,14.181-3.654,0-1.934-3.544-3.437-9.991-3.437-6.766,0-13.1,1.612-18.26,5.156l-1.505-.321-2.689-14.4c-.107-.75.434-1.4,1.829-2.146,4.294-2.365,14.073-4.513,22.666-4.513,16.974,0,28.254,7.2,28.468,25.46.107,11.065.107,18.477,5.268,27.716l-.538,1.827a84.353,84.353,0,0,0-12.787-1.074,73.393,73.393,0,0,0-12.032,1.074l-1.288-1.5a25.225,25.225,0,0,0,1.827-6.659m-1.4-15.472c-.967.214-6.876,1.72-10.422,3.008-2.47.86-4.3,2.041-4.3,5.049,0,2.687,1.181,4.618,4.728,4.618,4.3,0,8.915-4.832,9.991-12.675" transform="translate(280.533 16.21)" fill="#fff"/>
      <path id="Path_419" data-name="Path 419" d="M241.084,11.375c-1.077,2.472-1.827,5.48-2.47,12.139,5.692-7.2,12.568-11.065,19.98-11.065,12.032,0,18.908,8.917,19.23,22.669.431,16.436.646,17.51,5.052,30.4.212.536-.217,1.181-.431,1.824a81.643,81.643,0,0,0-14.073-1.074,82.93,82.93,0,0,0-14.181,1.074l-.431-1.824a68.591,68.591,0,0,0,4.192-22.562c0-9.239-2.472-12.568-7.307-12.568-6.23,0-10.958,5.371-10.958,13.642a60.264,60.264,0,0,0,4.082,21.488c.217.536-.107,1.181-.214,1.824a95.562,95.562,0,0,0-28.575,0l-.429-1.824c2.9-5.049,4.618-14.073,4.618-23.526,0-8.381-1.4-16.974-4.618-23.312l.429-1.934a108.931,108.931,0,0,0,24.815-6.876Z" transform="translate(320.149 14.731)" fill="#fff"/>
      <path id="Path_420" data-name="Path 420" d="M243.211,55c0-16.757,10.422-28.254,25.246-28.254a30.55,30.55,0,0,1,14.931,3.978c-.86-8.167-2.47-17.081-4.508-22.347l.426-1.827c7.629-.964,20.09-3.115,27.5-6.552l1.4,1.505c-2.255,11.172-4.082,33.193-4.082,42.97,0,10.527,1.934,30.941,4.621,35.883l-.538,1.717A66.827,66.827,0,0,0,295.851,81a57.881,57.881,0,0,0-11.494,1.074l-.538-1.717c.431-2.044.86-4.3,1.184-6.554-4.085,4.942-9.024,9.777-18.37,9.777-13.752,0-23.422-11.065-23.422-28.578m40.608-.321V53.607c-.214-6.766-2.577-11.387-8.272-11.387-5.48,0-8.915,4.4-8.915,12.354,0,7.521,3.115,13.645,9.022,13.645,6.123,0,8.164-5.909,8.164-13.538" transform="translate(362.917)" fill="#fff"/>
    </g>
  </g>
</svg>
