<?xml version="1.0" encoding="utf-8"?>
<!-- Generator: Adobe Illustrator 26.1.0, SVG Export Plug-In . SVG Version: 6.00 Build 0)  -->
<svg version="1.1" id="圖層_1" xmlns="http://www.w3.org/2000/svg" xmlns:xlink="http://www.w3.org/1999/xlink" x="0px" y="0px"
	 viewBox="0 0 128.5 28.3" style="enable-background:new 0 0 128.5 28.3;" xml:space="preserve">
<style type="text/css">
	.st0{clip-path:url(#SVGID_00000147924838196641240420000010670799021717550490_);}
	.st1{fill:#9C63A0;}
</style>
<g id="Group_331" transform="translate(0 0)">
	<g>
		<defs>
			<rect id="SVGID_1_" width="128.5" height="28.3"/>
		</defs>
		<clipPath id="SVGID_00000158006494421560441130000016508983900372062117_">
			<use xlink:href="#SVGID_1_"  style="overflow:visible;"/>
		</clipPath>
		
			<g id="Group_152" transform="translate(0 0)" style="clip-path:url(#SVGID_00000158006494421560441130000016508983900372062117_);">
			<path id="Path_181" class="st1" d="M128.5,13.6c0,0.2-0.1,0.4-0.1,0.6c-0.1,0.4-0.2,0.7-0.3,1.1c-0.2,0.5-0.7,0.8-1.2,0.8
				c-0.3,0-0.6,0-1,0c-0.8,0-1.6,0-2.5,0c-0.3,0-0.7-0.1-1-0.1c-0.1,0-0.1,0-0.2,0c-0.5-0.1-0.9-0.5-1-1c0-0.2-0.1-0.4-0.1-0.6
				c0-2,0-3.9,0-5.9c0-0.1,0-0.1,0-0.2h1.6c0,0.2,0,0.4,0,0.6c0,0.2,0,0.4,0,0.6v0.7h4.7c0,0.5,0,1,0,1.4c0,0,0,0,0,0c0,0,0,0,0,0
				c0,0-0.1,0-0.1,0l-4.5,0c0,0,0,0,0,0c0,0.1,0,0.1,0,0.2c0,0.7,0,1.3,0,2c0,0.1,0,0.3,0,0.4c0,0.2,0.2,0.3,0.3,0.3
				c0.1,0,0.3,0,0.4,0c0.8,0,1.7,0,2.5,0c0,0,0.1,0,0.1,0c0.3,0,0.6-0.2,0.7-0.5c0.1-0.3,0.1-0.5,0.1-0.8c0-0.2,0-0.5,0.1-0.8
				c0.4,0.3,0.9,0.5,1.4,0.6L128.5,13.6z"/>
			<path id="Path_182" class="st1" d="M99.9,28.3c0,0-0.1,0-0.1-0.1c-0.4-0.1-0.7-0.3-0.9-0.7l0.7-0.5c0,0,0.1,0.1,0.1,0.1
				c0.3,0.3,0.8,0.3,1.2,0.2c0.1,0,0.2-0.1,0.2-0.3c0-0.1,0.1-0.3,0.1-0.5c-0.1,0-0.1,0-0.1,0.1c-0.4,0.2-0.8,0.2-1.2,0.1
				c-0.4-0.1-0.8-0.4-0.9-0.8c-0.1-0.2-0.2-0.5-0.2-0.8c0-0.3,0-0.6,0-1c0-0.4,0.2-0.8,0.4-1.1c0.5-0.5,1.3-0.6,2-0.2l0.1-0.2h1
				c0,0.1,0,0.1,0,0.2c0,1.3,0,2.6,0,3.9c0,0.2,0,0.4-0.1,0.5c-0.1,0.5-0.5,0.8-1,0.9c-0.1,0-0.1,0-0.2,0.1L99.9,28.3z M101.2,24.8
				c0-0.2,0-0.5-0.1-0.7c-0.1-0.4-0.4-0.6-0.8-0.5c-0.3,0.1-0.5,0.2-0.5,0.5c-0.1,0.4-0.1,0.8,0,1.2c0,0.1,0,0.2,0.1,0.3
				c0.1,0.1,0.2,0.2,0.3,0.3c0.3,0.2,0.7,0,0.9-0.3c0-0.1,0-0.1,0.1-0.2C101.1,25.2,101.2,25,101.2,24.8"/>
			<path id="Path_183" class="st1" d="M128.5,26.8h-1.3v-1.2c0.4,0,0.8,0,1.3,0V26.8z"/>
			<path id="Path_184" class="st1" d="M37.8,13.8h5.4c0,0.2,0,0.4,0.1,0.6c0.3,3.9,3.5,6.9,7.4,7c0,0,0.1,0,0.1,0
				c0.1,0.2,0.1,5,0,5.4c-2,0-3.9-0.4-5.7-1.3c-1.8-0.9-3.3-2.2-4.6-3.7c-0.2,0.2-0.4,0.5-0.6,0.7c-1.7,2-4,3.4-6.6,4
				c-1,0.3-2.1,0.4-3.2,0.4c-5.8,0-11.5,0-17.3,0c-3.1,0-6.1-1.1-8.4-3.1c-2.5-2.2-4.1-5.2-4.5-8.5C0,14.3,0,13.6,0,12.8
				c0.1-1.6,0.5-3.1,1.2-4.6c1.2-2.5,3.1-4.5,5.5-5.8C8,1.7,9.4,1.2,10.7,1c0.8-0.1,1.6-0.2,2.3-0.2c5.6,0,11.2,0,16.8,0h0.3v5.4
				H15.6c-0.9,0-1.8,0-2.6,0c-4.2,0-7.6,3.5-7.6,7.7c0,0.3,0,0.6,0.1,0.9c0.4,3.3,2.8,5.9,6,6.5c0.5,0.1,1.1,0.2,1.6,0.2
				c5.7,0,11.4,0,17,0c3.6,0,6.7-2.5,7.5-5.9C37.8,14.9,37.8,14.4,37.8,13.8"/>
			<path id="Path_185" class="st1" d="M78.7,7V5.6c0.3,0,0.6,0,0.9,0s0.6,0,0.9,0h2.8c0-0.2,0-0.4,0-0.6c0-0.2,0-0.4,0-0.6V3.8
				c-0.8-0.1-1.5-0.1-2.3,0c-0.3,0.6-0.7,1.1-1.2,1.6l-1.3-0.7l-2.7,3.9c0.2,0,0.4,0,0.6,0c0.4,0,0.8,0,1.2,0c0,0,0.1,0,0.1,0
				c0.3,0.1,0.5,0.2,0.8,0.3c-0.2,1.2-0.5,2.4-0.9,3.5c-0.1,0.2-0.1,0.4,0.1,0.5c0.5,0.7,1.2,1.2,2,1.4c0.6,0.2,1.3,0.3,1.9,0.3
				c1.4,0.1,2.8,0.1,4.3,0c0.8,0,1.7-0.1,2.5-0.1c0.5,0,1-0.1,1.5-0.1c0,0,0.1,0,0.1,0c-0.1,0.2-0.2,0.4-0.3,0.6
				c-0.1,0.2-0.1,0.5-0.2,0.7c0,0.1-0.1,0.2-0.2,0.2h-0.1c-0.7,0-1.4,0.1-2,0.1c-1.2,0-2.5,0-3.7,0.1c-0.7,0-1.4,0-2.1-0.1
				c-0.8,0-1.6-0.2-2.3-0.5c-0.8-0.3-1.5-0.8-2-1.4c0,0-0.1-0.1-0.1-0.1c0,0,0,0-0.1,0c-0.6,1-1.3,1.8-2.2,2.4l-1-1.1
				c0.9-0.6,1.6-1.4,2.2-2.4c0.5-0.9,0.9-2,1.1-3c-0.1,0-0.1,0-0.2,0c-0.5,0-0.9,0-1.4,0c-0.4,0-0.7,0.1-1.1,0.2l-0.6-1.4
				c0,0,0.1,0,0.1-0.1c0.3-0.1,0.6-0.3,0.8-0.6c0.6-0.8,1.2-1.6,1.8-2.5c-0.3,0-0.5,0-0.8,0c-0.3,0-0.5,0-0.8,0h-0.8V4.3H77
				c0.1,0,0.2,0,0.2,0c0.2-0.1,0.4,0,0.6,0.1c0.2,0.1,0.5,0.2,0.7,0.3c0.6-0.6,1-1.2,1.4-1.9c0.4-0.7,0.7-1.4,0.9-2.2l1.5,0.3
				c-0.2,0.5-0.4,1-0.6,1.5h1.5v-2c0.5-0.1,1.1-0.1,1.6,0c0,0.2,0,0.4,0,0.7c0,0.2,0,0.5,0,0.7v0.7h3.7c0,0.2,0,0.5,0,0.7
				c0,0.2,0,0.5,0,0.7c-0.3,0-0.6,0-0.9,0H85v1.9h4.4V7H78.7z"/>
			<path id="Path_186" class="st1" d="M63.7,16.2h-1.4v-0.6h-3.7v0.5c-0.5,0.1-1,0.1-1.4,0v-3.9c-0.3,1.2-0.7,2.3-1.3,3.4l-1.4-0.7
				c0,0,0-0.1,0.1-0.1c0.5-0.9,0.9-1.8,1.1-2.8c0.2-0.9,0.3-1.8,0.3-2.7c0.1-1.1,0-2.2,0-3.4c0-0.1,0-0.2,0-0.3h7.4
				c0.1,0.2,0.1,5,0,5.3h-6l-0.1,0.6c0,0,0,0,0,0c0,0,0,0,0,0c0,0,0.1,0,0.1,0l6.3,0c0,0,0,0,0,0c0,0,0,0,0,0c0,0,0,0,0,0
				c0,1.4,0,2.8,0,4.3C63.7,16,63.7,16,63.7,16.2C63.7,16.1,63.7,16.1,63.7,16.2 M58.5,12.8c0,0.5,0,1,0,1.5h3.7c0-0.5,0-1,0-1.5
				H58.5z M61.8,8.8h-4.4v0.9h4.4V8.8z M61.8,6.9c-0.5,0-4.1,0-4.3,0c0,0.2,0,0.5,0,0.7c0,0,0,0.1,0,0.1h4.3L61.8,6.9z"/>
			<path id="Path_187" class="st1" d="M95.6,9.1h10.9c0,0,0,0,0,0c0,0,0,0,0,0c0,2.3,0,4.7,0,7c0,0.1,0,0.1,0,0.2
				c-0.6,0.1-1.1,0.1-1.7,0v-0.6h-7.7v0.6c-0.5,0.1-1.1,0.1-1.6,0c0,0,0,0,0,0c0,0,0,0,0,0c0,0,0-0.1,0-0.1
				C95.6,13.8,95.6,11.5,95.6,9.1C95.6,9.1,95.6,9.1,95.6,9.1 M104.9,14.3V13h-7.7v1.4H104.9z M104.9,10.4c-0.5,0-7.5,0-7.7,0v1.3
				c0.4,0,7.5,0,7.7,0V10.4z"/>
			<path id="Path_188" class="st1" d="M113.4,6.4h6.3v0.3c0,2.6,0,5.2,0,7.9c0,0.2,0,0.4-0.1,0.6c-0.1,0.4-0.4,0.8-0.8,0.9
				c-0.3,0.1-0.7,0.1-1,0.2c-0.4,0-0.8,0-1.1,0l-0.5-1.3c0.2,0,0.5,0,0.7,0c0.3,0,0.7,0,1,0c0.2,0,0.3-0.1,0.3-0.3
				c0-0.7,0-1.4,0-2.2c0,0,0-0.1,0-0.1l-2.9,1.8c-0.2-0.3-0.3-0.7-0.5-1.1c-0.1,1.1-0.6,2.2-1.2,3.1l-1.2-1.1c0,0,0-0.1,0.1-0.1
				c0.4-0.6,0.7-1.3,0.8-2c0.1-0.8,0.2-1.6,0.2-2.4c0-1.3,0-2.6,0-3.9L113.4,6.4z M117.4,11.2c-0.3-0.2-0.5-0.4-0.8-0.6
				s-0.5-0.4-0.8-0.6c-0.3-0.2-0.6-0.4-0.9-0.6c0,1.1,0,2.2-0.1,3.3c0.1-0.1,0.2-0.1,0.3-0.1c0.9-0.4,1.8-0.9,2.7-1.3
				c0.4-0.2,0.4-0.2,0.4-0.7c0,0,0-0.1,0-0.1L117.4,11.2 M115.8,8.6l2.4,1.6V7.8c-0.4,0-3,0-3.2,0v1.4L115.8,8.6"/>
			<path id="Path_189" class="st1" d="M44,3.5C44,5.4,42.4,7,40.5,7C38.6,7,37,5.4,37,3.5S38.6,0,40.5,0C42.4,0,44,1.6,44,3.5
				L44,3.5"/>
			<path id="Path_190" class="st1" d="M97.4,6.9c-0.8,1.2-2,2.1-3.3,2.6l-1-1.1c0.3-0.2,0.7-0.3,1.1-0.5C94.8,7.5,95.5,7,96,6.3
				c0.1-0.2,0.2-0.4,0.4-0.6h-3.1c-0.1-0.4-0.1-0.9,0-1.3h1l0-0.1c-0.4-0.2-0.7-0.5-1.1-0.7c0.9-1,1.6-2.2,1.9-3.5l1.5,0.3l-0.4,1.1
				c0.3,0,0.6,0,0.9,0s0.6,0,0.9,0h2.7v1.3h-2.4v1.4c0.3,0,0.6,0,0.9,0s0.6,0,1,0h1v1.3h-2.8c-0.1,0-0.1,0-0.2,0
				c0,0-0.1,0.1-0.1,0.1C99,6.4,100,7,101,7.6l-1.1,1.1L97.4,6.9 M95.5,2.9l-1,1.4c0.7,0,1.4,0,2.1,0c0-0.5,0-0.9,0-1.4L95.5,2.9z"
				/>
			<path id="Path_191" class="st1" d="M88.4,8.2v5c-0.2,0.1-7.3,0.1-8.3,0C80,13,80,8.9,80,8.2C80.2,8.2,88.1,8.2,88.4,8.2
				 M81.6,11.9c0.4,0,4.9,0,5.1,0V9.6c-0.1,0-0.1,0-0.1,0l-4.9,0c0,0,0,0,0,0c0,0,0,0,0,0L81.6,11.9z"/>
			<path id="Path_192" class="st1" d="M108.1,7.9h-6.3c0-0.7,0-1.4,0-2.1s0-1.4,0-2.1V1.6h6.3c0,0,0,0,0,0c0,0,0,0,0,0
				c0,2,0,4.1,0,6.1C108.1,7.8,108.1,7.8,108.1,7.9 M106.4,6.4V3.1c-0.3,0-2.9,0-3.1,0v1.6c0,0.3,0,0.6,0,0.8c0,0.3,0,0.5,0,0.8
				H106.4z"/>
			<path id="Path_193" class="st1" d="M66.2,16.2l-0.5-1.6c0.7,0,1.3,0,2,0c0.1,0,0.2,0,0.3,0c0.1,0,0.2-0.1,0.3-0.3
				c0-0.1,0-0.2,0-0.3c0-4.5,0-8.9,0-13.4V0.3h1.6c0.1,0.1,0,0.2,0,0.3c0,3.1,0,6.2,0,9.3c0,1.4,0,2.8,0,4.2c0,0.3,0,0.6-0.1,1
				c-0.1,0.3-0.3,0.6-0.6,0.8c-0.3,0.1-0.6,0.2-1,0.3C67.5,16.3,66.8,16.3,66.2,16.2"/>
			<path id="Path_194" class="st1" d="M121.2,0.3h1.6c0,0.2,0,0.5,0,0.7c0,0.2,0,0.5,0,0.7v0.8h4.5v1.4h-4.5c0,0.1,0,0.1,0,0.2
				c0,0.5,0,0.9,0,1.4c0,0.2,0,0.3,0.1,0.5c0,0.2,0.2,0.4,0.4,0.4c0.1,0,0.1,0,0.2,0c1.2,0,2.3,0,3.5,0c0.3,0,0.6,0,1-0.1l0.2,1.4
				c-0.3,0.1-0.6,0.1-0.8,0.1c-1.4,0-2.8,0-4.1,0c-0.3,0-0.5,0-0.8-0.1c-0.6-0.1-1-0.6-1.1-1.2c0-0.2-0.1-0.4-0.1-0.7
				c0-1.8,0-3.5,0-5.3C121.2,0.4,121.2,0.4,121.2,0.3"/>
			<path id="Path_195" class="st1" d="M59.4,0.3l1.5,0.6c0,0.2-0.2,0.3-0.2,0.5c1.2,0.8,2.5,1.5,3.7,2.4l-0.9,1.4
				c-1.2-0.9-2.5-1.7-3.8-2.6l-1.4,1.3c0.4,0,0.7,0,1.1,0h2.1c0,0.2,0,0.3,0,0.5s0,0.3,0,0.5c-0.2,0.1-3.2,0.1-3.6,0V4.2
				c-0.8,0.7-1.7,1.2-2.7,1.7l-0.9-1.5C56.4,3.5,58.1,2.1,59.4,0.3"/>
			<path id="Path_196" class="st1" d="M113.2,5.6l-0.5-1.5c0.6-0.3,1.1-0.8,1.5-1.4c0.6-0.7,1.1-1.5,1.6-2.4c0,0,0-0.1,0.1-0.1
				l1.7,0.5c-0.7,1.1-1.4,2.1-2.3,3c1,0,2-0.1,3-0.2l-0.4-0.8L117.3,2l1.3-0.5c0.8,1.2,1.6,2.6,2.2,3.9L119.4,6l-0.5-1.1
				c-1,0.1-1.9,0.2-2.9,0.3C115.1,5.2,114.2,5.4,113.2,5.6"/>
			<path id="Path_197" class="st1" d="M65,2.1h1.5v9.6H65C65,11.5,65,2.4,65,2.1"/>
			<path id="Path_198" class="st1" d="M58.5,23h-1.1c-0.1-0.1-0.1-0.3-0.2-0.4c-0.2-0.3-0.5-0.5-0.8-0.5c-0.3,0-0.7,0.2-0.8,0.5
				c-0.1,0.2-0.2,0.5-0.2,0.8c0,0.4,0,0.8,0,1.2c0,0.3,0.1,0.6,0.2,0.8c0.1,0.3,0.4,0.5,0.7,0.4c0.1,0,0.1,0,0.2,0
				c0.3,0,0.5-0.2,0.6-0.4c0.1-0.1,0.1-0.2,0.2-0.4h1.1c0,0.4-0.1,0.7-0.3,1c-0.3,0.4-0.7,0.7-1.2,0.7c-0.4,0.1-0.8,0.1-1.1,0
				c-0.6-0.1-1.1-0.6-1.3-1.2c-0.1-0.4-0.2-0.7-0.2-1.1c0-0.4,0-0.8,0-1.2c0-0.4,0.1-0.8,0.3-1.1c0.3-0.5,0.7-0.8,1.3-0.9
				c0.4-0.1,0.8-0.1,1.1,0c0.7,0.2,1.2,0.8,1.4,1.5C58.5,22.8,58.5,22.9,58.5,23"/>
			<path id="Path_199" class="st1" d="M69.4,26.8h-1l0-0.2c-0.3,0.3-0.8,0.4-1.3,0.3c-0.6-0.1-1-0.6-1-1.2c-0.1-0.6,0.3-1.1,0.9-1.2
				c0.2-0.1,0.4-0.1,0.7-0.1c0.2,0,0.5,0,0.7,0c0-0.1,0-0.2,0-0.3c0-0.3-0.1-0.5-0.5-0.5c-0.2,0-0.4,0-0.5,0c-0.2,0-0.3,0.1-0.4,0.3
				c-0.3-0.1-0.5-0.3-0.7-0.5c0.2-0.4,0.6-0.6,1-0.6c0.4-0.1,0.8-0.1,1.2,0c0.5,0,1,0.4,1,1c0,0.2,0,0.3,0,0.5c0,0.8,0,1.5,0,2.3
				L69.4,26.8 M68.4,25.2c-0.3,0-0.6,0-0.9,0c-0.2,0-0.3,0.1-0.3,0.3c-0.1,0.2,0,0.4,0.2,0.4c0.2,0.1,0.5,0.1,0.8,0
				c0.2-0.1,0.3-0.3,0.3-0.5C68.4,25.4,68.4,25.3,68.4,25.2"/>
			<path id="Path_200" class="st1" d="M104,25.1c-0.1,0.3,0.1,0.7,0.4,0.8c0.4,0.2,0.8,0,1.1-0.3l0.7,0.5c-0.1,0.2-0.3,0.4-0.5,0.5
				c-0.3,0.1-0.7,0.2-1,0.2c-0.9,0.1-1.7-0.6-1.7-1.5c0,0,0-0.1,0-0.1c0-0.4,0-0.8,0-1.2c0.1-0.8,0.7-1.3,1.5-1.3
				c0.2,0,0.5,0,0.7,0.1c0.5,0.1,0.8,0.4,1,0.9c0.1,0.5,0.2,0.9,0.1,1.4L104,25.1z M105.1,24.3c0-0.5-0.2-0.7-0.6-0.7
				c-0.4,0-0.6,0.3-0.6,0.7H105.1z"/>
			<path id="Path_201" class="st1" d="M91.4,25h-2.2c-0.1,0.3,0,0.6,0.3,0.8c0.4,0.2,0.8,0.1,1.1-0.2l0.8,0.5
				c-0.1,0.2-0.3,0.4-0.5,0.5c-0.3,0.2-0.7,0.2-1.1,0.2c-0.9,0-1.6-0.7-1.6-1.5c-0.1-0.5,0-1,0.1-1.5c0.1-0.6,0.6-1,1.2-1.1
				c0.3-0.1,0.6,0,0.9,0c0.5,0.1,0.9,0.4,1,0.9C91.4,24.1,91.4,24.6,91.4,25 M89.1,24.3h1.2c0.1-0.3-0.1-0.6-0.4-0.7
				c0,0-0.1,0-0.1,0C89.4,23.6,89.1,23.8,89.1,24.3"/>
			<path id="Path_202" class="st1" d="M76.1,25.1h-2.2c-0.1,0.3,0,0.6,0.3,0.8c0.4,0.2,0.8,0.1,1.1-0.2c0.1,0,0.1,0.1,0.2,0.1
				c0.2,0.1,0.4,0.2,0.5,0.4c-0.2,0.3-0.4,0.5-0.8,0.6c-0.4,0.1-0.8,0.1-1.2,0c-0.6-0.1-1.1-0.6-1.2-1.2c-0.1-0.6-0.1-1.2,0-1.8
				c0.1-0.6,0.6-1,1.2-1.1c0.3-0.1,0.6,0,0.9,0c0.6,0.1,1,0.6,1.1,1.2C76.1,24.3,76.1,24.7,76.1,25.1 M75,24.3
				c0-0.4-0.2-0.7-0.5-0.7c-0.4,0-0.6,0.2-0.6,0.7H75z"/>
			<path id="Path_203" class="st1" d="M110.3,26.8h-1.1v-0.3c0-0.7,0-1.4,0-2.1c0-0.1,0-0.2,0-0.3c0-0.3-0.2-0.5-0.5-0.5
				c-0.3-0.1-0.6,0.1-0.7,0.3c-0.1,0.2-0.1,0.4-0.1,0.5c0,0.7,0,1.3,0,2v0.3c-0.2,0-0.3,0-0.5,0c-0.2,0-0.3,0-0.5,0v-4h1L108,23
				c0,0,0,0,0.1,0c0.4-0.3,0.9-0.4,1.3-0.2c0.5,0.1,0.8,0.5,0.9,1c0,0.1,0.1,0.3,0.1,0.4C110.3,25,110.3,25.9,110.3,26.8"/>
			<path id="Path_204" class="st1" d="M119.4,22.8h1l0,0.2c0.3-0.2,0.6-0.3,1-0.3c0.2,0,0.5,0.1,0.7,0.2c0.3,0.1,0.5,0.4,0.6,0.7
				c0.1,0.2,0.1,0.4,0.1,0.6c0,0.9,0,1.7,0,2.6c-0.3,0-0.7,0-1,0c0-0.1,0-0.2,0-0.2c0-0.7,0-1.4,0-2c0-0.1,0-0.2,0-0.3
				c-0.1-0.3-0.2-0.5-0.5-0.5c-0.3-0.1-0.6,0.1-0.7,0.4c0,0.1-0.1,0.3-0.1,0.4c0,0.7,0,1.3,0,2v0.3c-0.3,0-0.7,0-1,0
				C119.4,26.6,119.3,23.3,119.4,22.8"/>
			<path id="Path_205" class="st1" d="M65.6,25h-2.2c-0.1,0.3,0.1,0.6,0.3,0.8c0.4,0.2,0.8,0.1,1.1-0.2l0.4,0.3l0.4,0.3
				c-0.1,0.2-0.3,0.4-0.5,0.5c-0.2,0.1-0.4,0.2-0.6,0.2c-0.3,0-0.6,0-0.9,0c-0.6-0.1-1.1-0.6-1.2-1.2c0-0.2-0.1-0.4-0.1-0.5
				c0-0.4,0-0.8,0.1-1.2c0.1-0.6,0.6-1.1,1.2-1.1c0.3-0.1,0.6,0,0.9,0c0.5,0.1,0.8,0.4,1,0.8C65.6,24,65.6,24.5,65.6,25 M64.5,24.3
				c-0.1-0.5-0.2-0.7-0.6-0.7c-0.4,0-0.5,0.2-0.6,0.7H64.5z"/>
			<path id="Path_206" class="st1" d="M81.3,26.8v-4h1l0,0.2c0.2-0.1,0.4-0.2,0.6-0.2c0.4-0.1,0.7,0,1,0.1c0.4,0.2,0.6,0.6,0.6,1
				c0,0.2,0,0.5,0,0.7c0,0.6,0,1.3,0,1.9v0.3h-1c0-0.1,0-0.2,0-0.2c0-0.7,0-1.4,0-2c0-0.2,0-0.3,0-0.4c0-0.3-0.3-0.5-0.6-0.4
				c-0.3,0-0.5,0.1-0.6,0.4c0,0.1-0.1,0.3-0.1,0.4c0,0.7,0,1.4,0,2.1v0.2h-0.5L81.3,26.8"/>
			<path id="Path_207" class="st1" d="M111,26.2l0.8-0.6c0.3,0.3,0.7,0.4,1.1,0.3c0.1,0,0.1,0,0.2,0c0.1,0,0.2-0.1,0.2-0.2
				c0-0.1,0-0.2-0.1-0.3c-0.1,0-0.3-0.1-0.4-0.1c-0.3-0.1-0.6-0.1-0.8-0.2c-0.6-0.2-0.9-0.9-0.7-1.5c0,0,0,0,0,0
				c0.1-0.4,0.5-0.7,0.9-0.8c0.4-0.1,0.9-0.1,1.4,0c0.3,0.1,0.6,0.3,0.8,0.6c-0.2,0.2-0.5,0.4-0.8,0.5c-0.2-0.2-0.5-0.3-0.8-0.3
				c-0.1,0-0.2,0-0.2,0c-0.1,0-0.2,0.1-0.2,0.2c0,0.1,0.1,0.2,0.2,0.3c0.1,0,0.2,0.1,0.3,0.1c0.2,0.1,0.5,0.1,0.7,0.2
				c0.1,0,0.1,0,0.2,0.1c0.5,0.2,0.8,0.7,0.7,1.2c0,0.5-0.4,0.9-0.9,1c-0.5,0.1-1.1,0.1-1.7,0C111.4,26.6,111.1,26.4,111,26.2"/>
			<path id="Path_208" class="st1" d="M126.7,23.4l-0.8,0.5c0,0-0.1-0.1-0.1-0.1c-0.2-0.2-0.5-0.3-0.8-0.2c-0.2,0.1-0.4,0.2-0.4,0.5
				c0,0.2-0.1,0.3-0.1,0.5c0,0.3,0,0.5,0,0.8c0,0.3,0.2,0.5,0.5,0.6c0.3,0.1,0.6,0,0.8-0.2c0,0,0.1-0.1,0.1-0.1
				c0.3,0.2,0.5,0.3,0.8,0.5c-0.2,0.4-0.5,0.6-0.9,0.7c-0.4,0.1-0.7,0.1-1.1,0c-0.7-0.2-1.1-0.7-1.2-1.4c0-0.4,0-0.8,0-1.3
				c0-0.7,0.6-1.3,1.3-1.4c0.4-0.1,0.8-0.1,1.1,0.1C126.2,22.9,126.5,23.1,126.7,23.4"/>
			<path id="Path_209" class="st1" d="M70,23.7v-0.9l0.5,0v-0.9h1.1v0.9h0.8v0.9h-0.7c0,0.1,0,0.1,0,0.2c0,0.5,0,1,0,1.6
				c0,0.4,0.1,0.5,0.5,0.5c0.1,0,0.2,0,0.3,0v0.9c-0.4,0.1-0.8,0.1-1.3-0.1c-0.3-0.1-0.5-0.4-0.5-0.7c0-0.2-0.1-0.4-0.1-0.6
				c0-0.5,0-1,0-1.4v-0.3H70z"/>
			<path id="Path_210" class="st1" d="M85.7,21.9h1c0.1,0.3,0,0.6,0,0.9h0.7v0.9h-0.7c0,0.1,0,0.1,0,0.1c0,0.5,0,1.1,0,1.6
				c0,0.3,0.1,0.4,0.5,0.4c0.1,0,0.2,0,0.3,0c0,0.1,0,0.3,0,0.5c0,0.1,0,0.3,0,0.5c-0.4,0-0.8,0-1.2-0.1c-0.3-0.1-0.5-0.3-0.6-0.6
				c0-0.2-0.1-0.3-0.1-0.5c0-0.5,0-1.1,0-1.6c0-0.1,0-0.2,0-0.3h-0.5v-0.9l0.5,0L85.7,21.9z"/>
			<path id="Path_211" class="st1" d="M80.2,26.8h-1.1v-5.5h0.6h0.5L80.2,26.8z"/>
			<path id="Path_212" class="st1" d="M118.3,26.8h-1.1v-5.5c0.4,0,0.7,0,1.1,0V26.8z"/>
			<path id="Path_213" class="st1" d="M94.5,21.3h1c0,0.1,0,0.2,0,0.3c0,1.2,0,2.4,0,3.6c0,0.1,0,0.2,0,0.4c0,0.3,0.1,0.4,0.4,0.4
				c0,0,0.1,0,0.1,0v0.9c-0.4,0.1-0.7,0-1.1-0.2c-0.3-0.2-0.5-0.5-0.5-0.9c0,0,0-0.1,0-0.1c0-1.4,0-2.7,0-4.1
				C94.4,21.4,94.4,21.4,94.5,21.3"/>
			<path id="Path_214" class="st1" d="M93.7,25.9v0.9c-0.4,0-0.7,0-1.1-0.2c-0.3-0.2-0.5-0.5-0.5-0.9c0-0.1,0-0.1,0-0.2
				c0-1.4,0-2.7,0-4.1c0-0.1,0-0.1,0-0.2h1c0,0.1,0,0.2,0,0.3c0,1.2,0,2.4,0,3.5c0,0.1,0,0.2,0,0.3c0,0.3,0.1,0.4,0.4,0.4
				C93.6,25.9,93.7,25.9,93.7,25.9"/>
			<path id="Path_215" class="st1" d="M59.2,22.8h1l0,0.2c0.5-0.5,1.3-0.4,1.7,0c0.1,0.1,0.1,0.2,0.2,0.3l-0.8,0.6
				c0,0-0.1-0.1-0.1-0.1c-0.1-0.2-0.4-0.3-0.6-0.2c-0.2,0.1-0.4,0.3-0.4,0.5c0,0.2,0,0.4,0,0.6c0,0.6,0,1.3,0,1.9c0,0,0,0.1,0,0.1
				h-1C59.2,26.6,59.1,23.1,59.2,22.8"/>
			<path id="Path_216" class="st1" d="M76.7,3.8c-0.7-1-1.4-1.9-2.2-2.8l1.2-0.8c0.8,0.8,1.6,1.7,2.3,2.7L76.7,3.8"/>
			<path id="Path_217" class="st1" d="M96.9,22.8h1c0.1,0.2,0.1,3.3,0,4c-0.3,0-0.7,0-1,0C96.8,26.6,96.8,23.1,96.9,22.8"/>
			<path id="Path_218" class="st1" d="M97.9,22.3h-1.1c0-0.3,0-0.6,0-1c0.4,0,0.7,0,1.1,0V22.3z"/>
		</g>
	</g>
</g>
</svg>
