<svg xmlns="http://www.w3.org/2000/svg" xmlns:xlink="http://www.w3.org/1999/xlink" width="128.465" height="28.33" viewBox="0 0 128.465 28.33">
  <defs>
    <clipPath id="clip-path">
      <rect id="Rectangle_128" data-name="Rectangle 128" width="128.465" height="28.33" transform="translate(0 0)" fill="#273545"/>
    </clipPath>
  </defs>
  <g id="Group_331" data-name="Group 331" transform="translate(0 0)">
    <g id="Group_152" data-name="Group 152" transform="translate(0 0)" clip-path="url(#clip-path)">
      <path id="Path_181" data-name="Path 181" d="M547.908,42.606c-.036.2-.076.4-.108.6a4.1,4.1,0,0,1-.312,1.1,1.4,1.4,0,0,1-1.2.82c-.32.034-.643.043-.964.046-.824.006-1.649.011-2.473,0-.347-.006-.693-.061-1.039-.1a1.168,1.168,0,0,1-.155-.041,1.257,1.257,0,0,1-.986-1.017,2.685,2.685,0,0,1-.07-.584q-.008-2.953,0-5.905c0-.052,0-.1.007-.167h1.581a2.884,2.884,0,0,1,.023.626c.006.206,0,.411,0,.617v.656h4.677c0,.49,0,.961,0,1.421-.017.017-.023.024-.03.029a.054.054,0,0,1-.022.013.634.634,0,0,1-.08.006l-4.489.007c-.008,0-.016.006-.042.017,0,.059-.014.128-.015.2,0,.662,0,1.324,0,1.986a3.735,3.735,0,0,0,.039.4.373.373,0,0,0,.35.348,2.937,2.937,0,0,0,.427.037c.833,0,1.667,0,2.5,0,.036,0,.072,0,.107,0a.587.587,0,0,0,.651-.514,6.707,6.707,0,0,0,.119-.793c.028-.247.037-.5.057-.764a3.853,3.853,0,0,0,1.448.584Z" transform="translate(-419.444 -28.986)" fill="#273545"/>
      <path id="Path_182" data-name="Path 182" d="M441.732,106.937a1.053,1.053,0,0,0-.143-.055,1.422,1.422,0,0,1-.926-.671l.679-.5c.038.032.079.062.113.1a1.166,1.166,0,0,0,1.207.162.41.41,0,0,0,.241-.273c.039-.144.056-.294.089-.484-.077.031-.114.042-.147.061a1.594,1.594,0,0,1-1.2.116,1.31,1.31,0,0,1-.926-.786,1.837,1.837,0,0,1-.175-.777c0-.322-.009-.644,0-.966a1.706,1.706,0,0,1,.424-1.1,1.622,1.622,0,0,1,1.961-.221l.065-.152h.968c.007.08.018.148.018.217,0,1.287,0,2.575,0,3.863a1.969,1.969,0,0,1-.079.526,1.225,1.225,0,0,1-.984.882c-.058.014-.113.038-.17.057Zm1.257-3.515c-.024-.232-.033-.464-.076-.69a.657.657,0,0,0-1.285-.014,3.306,3.306,0,0,0-.019,1.221,1.226,1.226,0,0,0,.079.281.541.541,0,0,0,.32.3.644.644,0,0,0,.909-.467,5.814,5.814,0,0,0,.074-.636" transform="translate(-341.816 -78.607)" fill="#273545"/>
      <path id="Path_183" data-name="Path 183" d="M568.843,115.129h-1.265v-1.248c.431,0,.848-.017,1.265.013Z" transform="translate(-440.379 -88.356)" fill="#273545"/>
      <path id="Path_184" data-name="Path 184" d="M37.82,16.535h5.36c.019.2.043.4.057.6a7.65,7.65,0,0,0,7.436,7.01c.044,0,.087,0,.127.007.053.2.067,5.008.014,5.359a12.719,12.719,0,0,1-5.729-1.336,13.065,13.065,0,0,1-4.563-3.736c-.2.238-.39.464-.585.683a12.917,12.917,0,0,1-6.564,4,12.7,12.7,0,0,1-3.185.388c-5.752-.006-11.5.007-17.257-.007a12.624,12.624,0,0,1-8.405-3.144A12.892,12.892,0,0,1,.068,17.846a12.951,12.951,0,0,1-.031-2.33,12.536,12.536,0,0,1,1.226-4.572A12.951,12.951,0,0,1,6.808,5.11a12.517,12.517,0,0,1,3.926-1.372,13.794,13.794,0,0,1,2.348-.2q8.387,0,16.773,0h.33V8.9H15.57c-.878,0-1.756-.015-2.634,0a7.614,7.614,0,0,0-7.5,8.555,7.629,7.629,0,0,0,6.048,6.535,8.016,8.016,0,0,0,1.6.158c5.68,0,11.361-.013,17.042,0a7.678,7.678,0,0,0,7.511-5.942,6.327,6.327,0,0,0,.179-1.677" transform="translate(0.001 -2.742)" fill="#273545"/>
      <path id="Path_185" data-name="Path 185" d="M333.332,7.8V6.419c.3-.018.6-.006.9-.008s.609,0,.914,0h2.791a4.238,4.238,0,0,0,.016-.617c0-.2,0-.394,0-.591V4.589a16.827,16.827,0,0,0-2.289-.028,11.722,11.722,0,0,1-1.182,1.614l-1.327-.739-2.683,3.891c.2,0,.375,0,.552,0,.4-.006.805-.016,1.208-.023a.3.3,0,0,1,.1.01c.251.091.5.184.759.28a15.509,15.509,0,0,1-.933,3.518.444.444,0,0,0,.057.488,3.855,3.855,0,0,0,2.039,1.406,8.654,8.654,0,0,0,1.921.337c1.423.111,2.847.053,4.27.042.849-.006,1.7-.063,2.547-.106.491-.025.981-.071,1.472-.107.034,0,.069,0,.119,0-.092.224-.19.43-.262.645-.078.236-.136.48-.194.722a.2.2,0,0,1-.2.18l-.134,0c-.679.026-1.358.062-2.038.076-1.226.026-2.453.05-3.679.051-.715,0-1.432-.021-2.145-.076a8.4,8.4,0,0,1-2.3-.467,4.6,4.6,0,0,1-2.038-1.43c-.039-.049-.08-.1-.122-.142-.011-.012-.031-.016-.059-.028a7.877,7.877,0,0,1-2.231,2.432l-1.05-1.118a6.848,6.848,0,0,0,2.151-2.354,10.764,10.764,0,0,0,1.124-3.01,1.567,1.567,0,0,0-.2-.027c-.457,0-.914-.011-1.371,0a2.112,2.112,0,0,0-1.058.247l-.562-1.355a.582.582,0,0,1,.1-.057A1.852,1.852,0,0,0,329.1,8.9a28.16,28.16,0,0,0,1.768-2.459,4.6,4.6,0,0,0-.78-.025c-.26-.006-.52,0-.779,0h-.79V5.068h3.119a.63.63,0,0,0,.24-.009.661.661,0,0,1,.56.058c.231.1.466.18.713.275a8.3,8.3,0,0,0,1.427-1.934,12.628,12.628,0,0,0,.942-2.206l1.49.335c-.154.526-.361,1-.561,1.508h1.512V1.085a8.818,8.818,0,0,1,1.605-.026,2.8,2.8,0,0,1,.026.656c.007.232,0,.465,0,.7V3.1h3.735a3.53,3.53,0,0,1,.027.711c.006.232,0,.464,0,.729-.324,0-.635,0-.945,0h-2.8v1.86h4.428V7.8Z" transform="translate(-254.602 -0.804)" fill="#273545"/>
      <path id="Path_186" data-name="Path 186" d="M251.932,35.724h-1.413v-.563h-3.726v.55a5.974,5.974,0,0,1-1.437.021V31.814a12.154,12.154,0,0,1-1.278,3.363l-1.417-.68a1.008,1.008,0,0,1,.056-.125,9.051,9.051,0,0,0,1.062-2.788,17.374,17.374,0,0,0,.345-2.731c.063-1.118.019-2.235.037-3.352,0-.1,0-.193,0-.3h7.369c.05.221.056,4.991.007,5.281h-6l-.094.606c.023.02.029.027.037.032a.055.055,0,0,0,.023.011c.036,0,.071.006.107.006l6.289.006a.082.082,0,0,1,.025.008.139.139,0,0,1,.021.017.039.039,0,0,1,.013.022q.007,2.133.013,4.266c0,.071,0,.143-.009.214,0,.015-.016.03-.033.058m-5.124-3.4a8.113,8.113,0,0,0,.018,1.533h3.665a8.6,8.6,0,0,0-.019-1.533Zm3.255-3.967h-4.38v.925h4.38Zm0-1.939c-.47-.043-4.127-.026-4.345.022,0,.226,0,.457,0,.688,0,.043.007.085.012.14h4.333Z" transform="translate(-188.279 -19.551)" fill="#273545"/>
      <path id="Path_187" data-name="Path 187" d="M426.608,40.464h10.916a.232.232,0,0,1,.032.025.042.042,0,0,1,.011.023q.006,3.489.011,6.977c0,.053-.007.106-.011.156a8.675,8.675,0,0,1-1.661.027v-.585h-7.681v.564a8.174,8.174,0,0,1-1.6.033.156.156,0,0,1-.021-.017.047.047,0,0,1-.013-.022.739.739,0,0,1-.012-.106q0-3.489,0-6.979a.481.481,0,0,1,.025-.1M435.9,45.74V44.387h-7.673V45.74Zm-.007-3.929c-.474-.045-7.47-.028-7.664.016V43.1c.4.048,7.468.032,7.664-.017Z" transform="translate(-330.98 -31.396)" fill="#273545"/>
      <path id="Path_188" data-name="Path 188" d="M502.405,28.758h6.333v.277q0,3.93,0,7.86a3.893,3.893,0,0,1-.052.64.992.992,0,0,1-.81.86,6.9,6.9,0,0,1-1.031.15c-.374.025-.75.006-1.12.006l-.515-1.313c.236.01.464.027.693.029.331,0,.662,0,.993-.011.2-.009.251-.068.252-.267,0-.724,0-1.449,0-2.173a.511.511,0,0,0-.023-.1l-2.93,1.835c-.2-.335-.264-.71-.472-1.062a7.186,7.186,0,0,1-1.217,3.148l-1.153-1.119a1.2,1.2,0,0,1,.06-.1,5.4,5.4,0,0,0,.78-1.978,12.564,12.564,0,0,0,.21-2.423c.013-1.315,0-2.629,0-3.944Zm4.005,4.8c-.278-.221-.541-.436-.809-.642s-.541-.41-.816-.608a8.8,8.8,0,0,0-.858-.585,24.354,24.354,0,0,1-.133,3.33c.131-.057.221-.093.308-.135q1.333-.653,2.665-1.309c.408-.2.407-.2.378-.666a.414.414,0,0,0-.027-.077l-.706.693m-1.639-2.686,2.359,1.628V30.155c-.413-.049-3-.033-3.189.018v1.447l.829-.749" transform="translate(-388.995 -22.313)" fill="#273545"/>
      <path id="Path_189" data-name="Path 189" d="M172.207,3.483a3.483,3.483,0,1,1-6.967-.02,3.483,3.483,0,0,1,6.967.02" transform="translate(-128.208 0)" fill="#273545"/>
      <path id="Path_190" data-name="Path 190" d="M419.477,7.469a7.694,7.694,0,0,1-3.348,2.63L415.094,9c.342-.163.712-.322,1.064-.511a5.005,5.005,0,0,0,1.878-1.6c.128-.192.232-.4.368-.636h-3.143a5.8,5.8,0,0,1-.009-1.32h1.03l.018-.054a10.207,10.207,0,0,0-1.129-.676A8.341,8.341,0,0,0,417.11.743l1.48.3L418.2,2.177c.314.011.606,0,.9.005s.609,0,.914,0h2.695V3.508h-2.393v1.4c.284.026.595.007.9.01s.645,0,.968,0h.95V6.248h-2.826a.956.956,0,0,0-.214.007c-.04.009-.071.059-.125.108,1.077.58,2.112,1.174,3.14,1.839l-1.148,1.076-2.488-1.809m-1.908-3.948L416.6,4.9a15,15,0,0,0,2.094-.021,6.466,6.466,0,0,0-.022-1.358Z" transform="translate(-322.068 -0.576)" fill="#273545"/>
      <path id="Path_191" data-name="Path 191" d="M365.389,36.6v4.978c-.23.055-7.332.08-8.323.03-.054-.2-.076-4.339-.027-5,.2-.046,8.068-.054,8.351-.006m-6.776,3.69c.431.049,4.9.032,5.1-.018V37.926c-.059-.005-.1-.013-.147-.013l-4.912.01a.043.043,0,0,0-.024.011.147.147,0,0,0-.019.024Z" transform="translate(-277.002 -28.375)" fill="#273545"/>
      <path id="Path_192" data-name="Path 192" d="M460.246,13.452h-6.315c-.03-.7-.009-1.391-.013-2.084s0-1.377,0-2.066V7.2h6.305a.2.2,0,0,1,.017.016c.006.006.015.014.015.021q.006,3.045.01,6.09a.976.976,0,0,1-.018.125M458.6,11.986V8.672c-.328-.044-2.913-.034-3.144.015v1.648c0,.277,0,.554,0,.831a6.96,6.96,0,0,0,.016.82Z" transform="translate(-352.188 -5.586)" fill="#273545"/>
      <path id="Path_193" data-name="Path 193" d="M293.43,17.374l-.521-1.606c.653,0,1.313,0,1.973,0a2.794,2.794,0,0,0,.321-.023.276.276,0,0,0,.253-.269,2.131,2.131,0,0,0,.005-.268q0-6.71,0-13.42V1.453h1.577c.063.09.031.2.031.3q0,4.67,0,9.341,0,2.107,0,4.214a3.775,3.775,0,0,1-.107.955,1.161,1.161,0,0,1-.643.781,3,3,0,0,1-.951.264,13.087,13.087,0,0,1-1.941.063" transform="translate(-227.265 -1.127)" fill="#273545"/>
      <path id="Path_194" data-name="Path 194" d="M540.607,1.208h1.576a4.106,4.106,0,0,1,.024.744c.006.241,0,.483,0,.725v.776h4.5V4.882h-4.478a1.7,1.7,0,0,0-.024.193c0,.456-.005.912,0,1.368a2.8,2.8,0,0,0,.052.479.442.442,0,0,0,.441.391c.071.006.143.008.215.008,1.156,0,2.311,0,3.467-.01.311,0,.622-.043.958-.067l.15,1.38a2.41,2.41,0,0,1-.836.12q-2.069.022-4.138.007a3.3,3.3,0,0,1-.767-.115,1.4,1.4,0,0,1-1.086-1.193,3.626,3.626,0,0,1-.067-.664q-.008-2.657,0-5.313c0-.079.006-.158.011-.257" transform="translate(-419.443 -0.937)" fill="#273545"/>
      <path id="Path_195" data-name="Path 195" d="M247.768,1.365l1.467.554c-.007.193-.179.292-.232.477,1.233.762,2.5,1.48,3.668,2.356l-.854,1.384c-1.209-.927-2.476-1.74-3.75-2.554l-1.394,1.334c.4.008.749,0,1.1,0h2.148c0,.18.008.346.009.512s0,.339,0,.505c-.2.051-3.25.066-3.644.018V5.226a17.664,17.664,0,0,1-2.653,1.737l-.883-1.543a12.249,12.249,0,0,0,5.018-4.056" transform="translate(-188.348 -1.059)" fill="#273545"/>
      <path id="Path_196" data-name="Path 196" d="M503.459,6.466l-.506-1.476a4.293,4.293,0,0,0,1.461-1.383,15.018,15.018,0,0,0,1.555-2.372.826.826,0,0,1,.07-.095l1.674.494a22.63,22.63,0,0,1-2.266,3.008,29.377,29.377,0,0,0,3.014-.2l-.446-.767-.456-.783,1.337-.5a28.5,28.5,0,0,1,2.2,3.922l-1.411.6-.515-1.128c-.97.078-1.919.171-2.869.271a19.493,19.493,0,0,0-2.844.4" transform="translate(-390.237 -0.885)" fill="#273545"/>
      <path id="Path_197" data-name="Path 197" d="M289.977,9.505h1.5v9.6h-1.5c-.049-.193-.056-9.33,0-9.6" transform="translate(-224.963 -7.375)" fill="#273545"/>
      <path id="Path_198" data-name="Path 198" d="M246.711,96.359h-1.063c-.056-.134-.1-.26-.16-.377a.837.837,0,0,0-.821-.454.806.806,0,0,0-.785.5,1.946,1.946,0,0,0-.159.754c-.006.4-.007.8,0,1.207a1.785,1.785,0,0,0,.187.8.755.755,0,0,0,.709.444c.072,0,.143,0,.215,0a.724.724,0,0,0,.647-.409c.061-.117.1-.246.157-.389H246.7a2.252,2.252,0,0,1-.336,1,1.6,1.6,0,0,1-1.165.735,2.835,2.835,0,0,1-1.119-.03,1.8,1.8,0,0,1-1.316-1.184,3.087,3.087,0,0,1-.181-1.13c0-.411,0-.823.018-1.233a2.461,2.461,0,0,1,.309-1.1,1.768,1.768,0,0,1,1.273-.89,2.53,2.53,0,0,1,1.143.028,1.812,1.812,0,0,1,1.351,1.476c.016.068.022.139.037.243" transform="translate(-188.215 -73.368)" fill="#273545"/>
      <path id="Path_199" data-name="Path 199" d="M298.4,105.352h-1l-.039-.238a1.245,1.245,0,0,1-1.281.275,1.13,1.13,0,0,1-.958-1.181,1.077,1.077,0,0,1,.862-1.162,3.357,3.357,0,0,1,.661-.09c.231-.015.464,0,.726,0,0-.1.01-.187.006-.272-.016-.343-.121-.46-.47-.489a3.893,3.893,0,0,0-.531.005.625.625,0,0,0-.434.286c-.251-.149-.484-.323-.73-.5a1.233,1.233,0,0,1,.967-.635,3.531,3.531,0,0,1,1.174,0,1.078,1.078,0,0,1,1.008.979,3.984,3.984,0,0,1,.041.505c0,.751,0,1.5,0,2.253v.274m-1.025-1.6c-.318,0-.6-.011-.888,0a.343.343,0,0,0-.334.295.388.388,0,0,0,.162.447.841.841,0,0,0,.75.028.521.521,0,0,0,.3-.475c.012-.087.009-.175.015-.3" transform="translate(-228.98 -78.592)" fill="#273545"/>
      <path id="Path_200" data-name="Path 200" d="M460.091,103.659a.774.774,0,0,0,.364.848.913.913,0,0,0,1.058-.267l.749.517a1.089,1.089,0,0,1-.487.5,2.058,2.058,0,0,1-1.016.189,1.6,1.6,0,0,1-1.736-1.586,4.89,4.89,0,0,1,.031-1.23,1.431,1.431,0,0,1,1.472-1.318,2.41,2.41,0,0,1,.692.06,1.279,1.279,0,0,1,.964.881,3.537,3.537,0,0,1,.134,1.4Zm1.162-.761c.008-.466-.2-.695-.6-.688-.368.006-.586.268-.562.688Z" transform="translate(-356.132 -78.608)" fill="#273545"/>
      <path id="Path_201" data-name="Path 201" d="M396.174,103.645h-2.206a.74.74,0,0,0,.3.826.894.894,0,0,0,1.1-.24l.752.517a1.122,1.122,0,0,1-.524.522,2.165,2.165,0,0,1-1.1.169,1.58,1.58,0,0,1-1.605-1.513,4.462,4.462,0,0,1,.068-1.515,1.353,1.353,0,0,1,1.165-1.07,2.262,2.262,0,0,1,.9.016,1.317,1.317,0,0,1,1.023.923,3.728,3.728,0,0,1,.119,1.364m-2.235-.756H395.1a.561.561,0,0,0-.493-.691c-.423,0-.653.215-.665.691" transform="translate(-304.818 -78.601)" fill="#273545"/>
      <path id="Path_202" data-name="Path 202" d="M327.994,103.652h-2.213a.751.751,0,0,0,.317.824.912.912,0,0,0,1.1-.237c.071.046.146.093.219.143.176.121.351.245.532.371a1.181,1.181,0,0,1-.758.61,2.525,2.525,0,0,1-1.2.039,1.485,1.485,0,0,1-1.241-1.246,3.966,3.966,0,0,1,.034-1.754,1.352,1.352,0,0,1,1.173-1.062,2.257,2.257,0,0,1,.93.026,1.383,1.383,0,0,1,1.06,1.182,4.515,4.515,0,0,1,.047,1.1m-1.069-.761c.017-.447-.169-.68-.533-.688-.4-.009-.633.237-.626.688Z" transform="translate(-251.907 -78.601)" fill="#273545"/>
      <path id="Path_203" data-name="Path 203" d="M480.636,105.354h-1.054v-.275q0-1.033,0-2.066a2.115,2.115,0,0,0-.012-.294.56.56,0,0,0-.471-.513.626.626,0,0,0-.7.327,1.516,1.516,0,0,0-.111.543c-.013.67,0,1.341,0,2.012v.251a1.634,1.634,0,0,1-.505.028c-.168.007-.336,0-.518,0V101.4h.982l.052.2a.2.2,0,0,0,.067-.02,1.441,1.441,0,0,1,1.349-.2,1.19,1.19,0,0,1,.873.956,1.747,1.747,0,0,1,.053.4c0,.867,0,1.733,0,2.628" transform="translate(-370.3 -78.594)" fill="#273545"/>
      <path id="Path_204" data-name="Path 204" d="M532.6,101.395h.983l.05.221a1.4,1.4,0,0,1,.956-.314,1.71,1.71,0,0,1,.7.169,1.117,1.117,0,0,1,.579.7,2.2,2.2,0,0,1,.1.577c.011.858,0,1.716,0,2.6-.344.03-.679.005-1.037.016-.006-.09-.015-.167-.015-.244,0-.68,0-1.359,0-2.039a1.792,1.792,0,0,0-.013-.348c-.068-.336-.183-.491-.537-.536a.615.615,0,0,0-.689.431,1.64,1.64,0,0,0-.062.448c-.006.662,0,1.323,0,1.985v.3c-.341,0-.668,0-.991,0-.053-.21-.073-3.432-.025-3.972" transform="translate(-413.217 -78.597)" fill="#273545"/>
      <path id="Path_205" data-name="Path 205" d="M281.186,103.653h-2.212a.785.785,0,0,0,.317.828.916.916,0,0,0,1.106-.242l.363.253.376.263a.966.966,0,0,1-.474.5,1.42,1.42,0,0,1-.612.177,3.1,3.1,0,0,1-.932-.045,1.5,1.5,0,0,1-1.159-1.2,2.322,2.322,0,0,1-.056-.53,5.6,5.6,0,0,1,.053-1.174,1.4,1.4,0,0,1,1.2-1.139,2.3,2.3,0,0,1,.878.012,1.308,1.308,0,0,1,1,.807,3.416,3.416,0,0,1,.159,1.485m-1.036-.755c-.051-.512-.219-.7-.614-.688-.36.006-.548.228-.576.688Z" transform="translate(-215.619 -78.608)" fill="#273545"/>
      <path id="Path_206" data-name="Path 206" d="M362.832,105.352v-3.973h.983l.043.178a5.616,5.616,0,0,1,.617-.238,1.475,1.475,0,0,1,1.041.135,1.184,1.184,0,0,1,.643.961,5.513,5.513,0,0,1,.047.72c.006.643,0,1.287,0,1.931v.274H365.17c-.005-.074-.015-.15-.015-.226,0-.679,0-1.359,0-2.038a1.9,1.9,0,0,0-.044-.45.52.52,0,0,0-.558-.44.614.614,0,0,0-.629.406,1.54,1.54,0,0,0-.069.446c-.007.7,0,1.394,0,2.092v.219l-.51,0h-.508" transform="translate(-281.518 -78.579)" fill="#273545"/>
      <path id="Path_207" data-name="Path 207" d="M495.216,104.741l.781-.554a1.075,1.075,0,0,0,1.084.312.834.834,0,0,0,.152-.048.248.248,0,0,0,.166-.224.244.244,0,0,0-.15-.26,3.662,3.662,0,0,0-.408-.122,6.238,6.238,0,0,1-.822-.229,1.163,1.163,0,0,1-.659-1.509,1.131,1.131,0,0,1,.9-.758,2.593,2.593,0,0,1,1.352.034,1.241,1.241,0,0,1,.752.575c-.239.195-.5.361-.755.545a.985.985,0,0,0-.829-.317,1.126,1.126,0,0,0-.235.048.244.244,0,0,0-.2.224.255.255,0,0,0,.167.277,1.878,1.878,0,0,0,.3.1c.234.056.47.1.7.16a1.161,1.161,0,0,1,.2.072,1.144,1.144,0,0,1,.721,1.225,1.119,1.119,0,0,1-.859,1.045,2.951,2.951,0,0,1-1.666-.043,1.278,1.278,0,0,1-.7-.551" transform="translate(-384.234 -78.58)" fill="#273545"/>
      <path id="Path_208" data-name="Path 208" d="M554.076,101.986l-.773.539c-.046-.043-.086-.076-.122-.114a.791.791,0,0,0-.821-.176.582.582,0,0,0-.438.462,2.045,2.045,0,0,0-.058.476,7.165,7.165,0,0,0,.041.8.6.6,0,0,0,.467.554.794.794,0,0,0,.82-.177c.032-.031.061-.065.111-.117.265.154.51.342.767.523a1.241,1.241,0,0,1-.945.65,2.639,2.639,0,0,1-1.092-.026,1.523,1.523,0,0,1-1.182-1.393,6.54,6.54,0,0,1,0-1.257,1.476,1.476,0,0,1,1.312-1.38,2.33,2.33,0,0,1,1.139.054,1.319,1.319,0,0,1,.772.584" transform="translate(-427.378 -78.6)" fill="#273545"/>
      <path id="Path_209" data-name="Path 209" d="M312.271,99.54v-.87l.464-.022v-.86H313.8v.86h.755v.872h-.721a1.73,1.73,0,0,0-.025.2c0,.519,0,1.037,0,1.556,0,.353.11.456.468.463.088,0,.176,0,.279,0v.87a2.574,2.574,0,0,1-1.251-.078.836.836,0,0,1-.5-.653,3.779,3.779,0,0,1-.057-.612c-.008-.483,0-.965,0-1.448V99.54Z" transform="translate(-242.288 -75.874)" fill="#273545"/>
      <path id="Path_210" data-name="Path 210" d="M380.875,97.77h1.046c.063.282-.01.569.048.873h.727v.872h-.735c-.007.064-.015.106-.015.148,0,.537,0,1.073,0,1.609,0,.337.113.443.454.45.089,0,.178,0,.277,0a1.285,1.285,0,0,1,.031.452c.007.142,0,.284,0,.452a3.787,3.787,0,0,1-1.152-.069.785.785,0,0,1-.578-.579,2.477,2.477,0,0,1-.084-.526c-.013-.536-.009-1.073-.011-1.609,0-.1,0-.194,0-.317h-.472v-.869l.463-.023Z" transform="translate(-295.158 -75.859)" fill="#273545"/>
      <path id="Path_211" data-name="Path 211" d="M354.158,100.347h-1.1V94.841l.556,0h.545Z" transform="translate(-273.934 -73.584)" fill="#273545"/>
      <path id="Path_212" data-name="Path 212" d="M524.009,100.344h-1.1v-5.5c.363-.018.725,0,1.1-.009Z" transform="translate(-405.72 -73.582)" fill="#273545"/>
      <path id="Path_213" data-name="Path 213" d="M421.394,94.9h1c.006.086.016.171.016.256q0,1.783,0,3.565a2.7,2.7,0,0,0,.029.373c.039.271.132.358.413.4.034.006.068.015.115.025v.867a1.922,1.922,0,0,1-1.068-.159,1,1,0,0,1-.521-.878,1.161,1.161,0,0,1,0-.134q0-2.037,0-4.075c0-.078.009-.156.014-.246" transform="translate(-326.944 -73.631)" fill="#273545"/>
      <path id="Path_214" data-name="Path 214" d="M412.641,99.534v.86a1.949,1.949,0,0,1-1.054-.154.981.981,0,0,1-.531-.872,1.634,1.634,0,0,1,0-.188q0-2.026,0-4.052c0-.07.007-.14.011-.224h1.015c0,.106.01.2.01.3q0,1.771,0,3.542a2.359,2.359,0,0,0,.026.346c.042.28.126.36.407.412.034.006.067.018.119.032" transform="translate(-318.931 -73.636)" fill="#273545"/>
      <path id="Path_215" data-name="Path 215" d="M264.031,101.406H265l.035.232a1.213,1.213,0,0,1,1.918.326l-.773.553c-.039-.036-.067-.058-.09-.085a.527.527,0,0,0-.6-.189.6.6,0,0,0-.42.536,3.888,3.888,0,0,0-.037.56c0,.625,0,1.251,0,1.876,0,.044-.006.088-.011.149h-.986c-.046-.191-.054-3.672-.005-3.957" transform="translate(-204.834 -78.607)" fill="#273545"/>
      <path id="Path_216" data-name="Path 216" d="M334.388,4.607a28.889,28.889,0,0,0-2.242-2.788l1.231-.784A26.658,26.658,0,0,1,335.654,3.7l-1.266.91" transform="translate(-257.709 -0.802)" fill="#273545"/>
      <path id="Path_217" data-name="Path 217" d="M432.242,101.73h.979c.052.2.072,3.342.025,3.963-.331.025-.666.006-1,.011-.052-.215-.057-3.719-.006-3.974" transform="translate(-335.345 -78.931)" fill="#273545"/>
      <path id="Path_218" data-name="Path 218" d="M433.177,95.847H432.1c-.026-.325-.01-.649-.009-1,.368-.012.718,0,1.086,0Z" transform="translate(-335.252 -73.583)" fill="#273545"/>
    </g>
  </g>
</svg>
