<svg version="1.1" id="圖層_1" xmlns="http://www.w3.org/2000/svg" xmlns:xlink="http://www.w3.org/1999/xlink" x="0px" y="0px" viewBox="0 0 217.951 48" style="enable-background:new 0 0 128.5 28.3;" xml:space="preserve" width="217.951" height="48">
  <style type="text/css">
    .st0{clip-path:url(#SVGID_00000147924838196641240420000010670799021717550490_);}
	.st1{fill:#9C63A0;}
  </style>
  <g id="Group_331" transform="translate(0 0)">
    <g>
      <defs>
        <path id="SVGID_1_" width="128.5" height="28.3" d="M0 0H217.951V48H0V0z"/>
      </defs>
      <clipPath id="SVGID_00000158006494421560441130000016508983900372062117_">
        <use xlink:href="#SVGID_1_" style="overflow:visible;"/>
      </clipPath>
      <g id="Group_152" transform="translate(0 0)" style="clip-path:url(#SVGID_00000158006494421560441130000016508983900372062117_);">
        <path id="Path_181" class="st1" d="M217.951 23.067c0 0.339 -0.17 0.678 -0.17 1.018c-0.17 0.678 -0.339 1.187 -0.509 1.866c-0.339 0.848 -1.187 1.357 -2.035 1.357c-0.509 0 -1.018 0 -1.696 0c-1.357 0 -2.714 0 -4.24 0c-0.509 0 -1.187 -0.17 -1.696 -0.17c-0.17 0 -0.17 0 -0.339 0c-0.848 -0.17 -1.527 -0.848 -1.696 -1.696c0 -0.339 -0.17 -0.678 -0.17 -1.018c0 -3.392 0 -6.615 0 -10.007c0 -0.17 0 -0.17 0 -0.339h2.714c0 0.339 0 0.678 0 1.018c0 0.339 0 0.678 0 1.018v1.187h7.972c0 0.848 0 1.696 0 2.375c0 0 0 0 0 0c0 0 0 0 0 0c0 0 -0.17 0 -0.17 0l-7.633 0c0 0 0 0 0 0c0 0.17 0 0.17 0 0.339c0 1.187 0 2.205 0 3.392c0 0.17 0 0.509 0 0.678c0 0.339 0.339 0.509 0.509 0.509c0.17 0 0.509 0 0.678 0c1.357 0 2.883 0 4.24 0c0 0 0.17 0 0.17 0c0.509 0 1.018 -0.339 1.187 -0.848c0.17 -0.509 0.17 -0.848 0.17 -1.357c0 -0.339 0 -0.848 0.17 -1.357c0.678 0.509 1.527 0.848 2.375 1.018L217.951 23.067z"/>
        <path id="Path_182" class="st1" d="M169.442 48c0 0 -0.17 0 -0.17 -0.17c-0.678 -0.17 -1.187 -0.509 -1.527 -1.187l1.187 -0.848c0 0 0.17 0.17 0.17 0.17c0.509 0.509 1.357 0.509 2.035 0.339c0.17 0 0.339 -0.17 0.339 -0.509c0 -0.17 0.17 -0.509 0.17 -0.848c-0.17 0 -0.17 0 -0.17 0.17c-0.678 0.339 -1.357 0.339 -2.035 0.17c-0.678 -0.17 -1.357 -0.678 -1.527 -1.357c-0.17 -0.339 -0.339 -0.848 -0.339 -1.357c0 -0.509 0 -1.018 0 -1.696c0 -0.678 0.339 -1.357 0.678 -1.866c0.848 -0.848 2.205 -1.018 3.392 -0.339l0.17 -0.339h1.696c0 0.17 0 0.17 0 0.339c0 2.205 0 4.41 0 6.615c0 0.339 0 0.678 -0.17 0.848c-0.17 0.848 -0.848 1.357 -1.696 1.527c-0.17 0 -0.17 0 -0.339 0.17L169.442 48zM171.647 42.064c0 -0.339 0 -0.848 -0.17 -1.187c-0.17 -0.678 -0.678 -1.018 -1.357 -0.848c-0.509 0.17 -0.848 0.339 -0.848 0.848c-0.17 0.678 -0.17 1.357 0 2.035c0 0.17 0 0.339 0.17 0.509c0.17 0.17 0.339 0.339 0.509 0.509c0.509 0.339 1.187 0 1.527 -0.509c0 -0.17 0 -0.17 0.17 -0.339C171.477 42.742 171.647 42.403 171.647 42.064"/>
        <path id="Path_183" class="st1" d="M217.951 45.456h-2.205v-2.035c0.678 0 1.357 0 2.205 0V45.456z"/>
        <path id="Path_184" class="st1" d="M64.113 23.406h9.159c0 0.339 0 0.678 0.17 1.018c0.509 6.615 5.936 11.703 12.551 11.873c0 0 0.17 0 0.17 0c0.17 0.339 0.17 8.481 0 9.159c-3.392 0 -6.615 -0.678 -9.668 -2.205c-3.053 -1.527 -5.597 -3.731 -7.802 -6.276c-0.339 0.339 -0.678 0.848 -1.018 1.187c-2.883 3.392 -6.784 5.767 -11.194 6.784c-1.696 0.509 -3.562 0.678 -5.428 0.678c-9.837 0 -19.505 0 -29.343 0c-5.258 0 -10.346 -1.866 -14.247 -5.258c-4.24 -3.731 -6.954 -8.82 -7.633 -14.417C0 24.254 0 23.067 0 21.71c0.17 -2.714 0.848 -5.258 2.035 -7.802c2.035 -4.24 5.258 -7.633 9.329 -9.837C13.569 2.883 15.943 2.035 18.148 1.696c1.357 -0.17 2.714 -0.339 3.901 -0.339c9.498 0 18.997 0 28.495 0h0.509v9.159H26.459c-1.527 0 -3.053 0 -4.41 0c-7.124 0 -12.89 5.936 -12.89 13.06c0 0.509 0 1.018 0.17 1.527c0.678 5.597 4.749 10.007 10.177 11.025c0.848 0.17 1.866 0.339 2.714 0.339c9.668 0 19.336 0 28.834 0c6.106 0 11.364 -4.24 12.721 -10.007C64.113 25.272 64.113 24.424 64.113 23.406"/>
        <path id="Path_185" class="st1" d="M133.484 11.873V9.498c0.509 0 1.018 0 1.527 0s1.018 0 1.527 0h4.749c0 -0.339 0 -0.678 0 -1.018c0 -0.339 0 -0.678 0 -1.018V6.445c-1.357 -0.17 -2.544 -0.17 -3.901 0c-0.509 1.018 -1.187 1.866 -2.035 2.714l-2.205 -1.187l-4.58 6.615c0.339 0 0.678 0 1.018 0c0.678 0 1.357 0 2.035 0c0 0 0.17 0 0.17 0c0.509 0.17 0.848 0.339 1.357 0.509c-0.339 2.035 -0.848 4.071 -1.527 5.936c-0.17 0.339 -0.17 0.678 0.17 0.848c0.848 1.187 2.035 2.035 3.392 2.375c1.018 0.339 2.205 0.509 3.223 0.509c2.375 0.17 4.749 0.17 7.293 0c1.357 0 2.883 -0.17 4.24 -0.17c0.848 0 1.696 -0.17 2.544 -0.17c0 0 0.17 0 0.17 0c-0.17 0.339 -0.339 0.678 -0.509 1.018c-0.17 0.339 -0.17 0.848 -0.339 1.187c0 0.17 -0.17 0.339 -0.339 0.339h-0.17c-1.187 0 -2.375 0.17 -3.392 0.17c-2.035 0 -4.24 0 -6.276 0.17c-1.187 0 -2.375 0 -3.562 -0.17c-1.357 0 -2.714 -0.339 -3.901 -0.848c-1.357 -0.509 -2.544 -1.357 -3.392 -2.375c0 0 -0.17 -0.17 -0.17 -0.17c0 0 0 0 -0.17 0c-1.018 1.696 -2.205 3.053 -3.731 4.071l-1.696 -1.866c1.527 -1.018 2.714 -2.375 3.731 -4.071c0.848 -1.527 1.527 -3.392 1.866 -5.088c-0.17 0 -0.17 0 -0.339 0c-0.848 0 -1.527 0 -2.375 0c-0.678 0 -1.187 0.17 -1.866 0.339l-1.018 -2.375c0 0 0.17 0 0.17 -0.17c0.509 -0.17 1.018 -0.509 1.357 -1.018c1.018 -1.357 2.035 -2.714 3.053 -4.24c-0.509 0 -0.848 0 -1.357 0c-0.509 0 -0.848 0 -1.357 0h-1.357V7.293H130.601c0.17 0 0.339 0 0.339 0c0.339 -0.17 0.678 0 1.018 0.17c0.339 0.17 0.848 0.339 1.187 0.509c1.018 -1.018 1.696 -2.035 2.375 -3.223c0.678 -1.187 1.187 -2.375 1.527 -3.731l2.544 0.509c-0.339 0.848 -0.678 1.696 -1.018 2.544h2.544v-3.392c0.848 -0.17 1.866 -0.17 2.714 0c0 0.339 0 0.678 0 1.187c0 0.339 0 0.848 0 1.187v1.187h6.276c0 0.339 0 0.848 0 1.187c0 0.339 0 0.848 0 1.187c-0.509 0 -1.018 0 -1.527 0H144.17v3.223h7.463V11.873H133.484z"/>
        <path id="Path_186" class="st1" d="M108.043 27.477h-2.375v-1.018h-6.276v0.848c-0.848 0.17 -1.696 0.17 -2.375 0v-6.615c-0.509 2.035 -1.187 3.901 -2.205 5.767l-2.375 -1.187c0 0 0 -0.17 0.17 -0.17c0.848 -1.527 1.527 -3.053 1.866 -4.749c0.339 -1.527 0.509 -3.053 0.509 -4.58c0.17 -1.866 0 -3.731 0 -5.767c0 -0.17 0 -0.339 0 -0.509h12.551c0.17 0.339 0.17 8.481 0 8.989h-10.177l-0.17 1.018c0 0 0 0 0 0c0 0 0 0 0 0c0 0 0.17 0 0.17 0l10.686 0c0 0 0 0 0 0c0 0 0 0 0 0c0 0 0 0 0 0c0 2.375 0 4.749 0 7.293C108.043 27.138 108.043 27.138 108.043 27.477C108.043 27.307 108.043 27.307 108.043 27.477M99.223 21.71c0 0.848 0 1.696 0 2.544h6.276c0 -0.848 0 -1.696 0 -2.544H99.223zM104.82 14.926h-7.463v1.527h7.463V14.926zM104.82 11.703c-0.848 0 -6.954 0 -7.293 0c0 0.339 0 0.848 0 1.187c0 0 0 0.17 0 0.17h7.293L104.82 11.703z"/>
        <path id="Path_187" class="st1" d="M162.149 15.435h18.488c0 0 0 0 0 0c0 0 0 0 0 0c0 3.901 0 7.972 0 11.873c0 0.17 0 0.17 0 0.339c-1.018 0.17 -1.866 0.17 -2.883 0v-1.018h-13.06v1.018c-0.848 0.17 -1.866 0.17 -2.714 0c0 0 0 0 0 0c0 0 0 0 0 0c0 0 0 -0.17 0 -0.17C162.149 23.406 162.149 19.505 162.149 15.435C162.149 15.435 162.149 15.435 162.149 15.435M177.923 24.254V22.05h-13.06v2.375H177.923zM177.923 17.64c-0.848 0 -12.721 0 -13.06 0v2.205c0.678 0 12.721 0 13.06 0V17.64z"/>
        <path id="Path_188" class="st1" d="M192.34 10.855h10.686v0.509c0 4.41 0 8.82 0 13.399c0 0.339 0 0.678 -0.17 1.018c-0.17 0.678 -0.678 1.357 -1.357 1.527c-0.509 0.17 -1.187 0.17 -1.696 0.339c-0.678 0 -1.357 0 -1.866 0l-0.848 -2.205c0.339 0 0.848 0 1.187 0c0.509 0 1.187 0 1.696 0c0.339 0 0.509 -0.17 0.509 -0.509c0 -1.187 0 -2.375 0 -3.731c0 0 0 -0.17 0 -0.17l-4.919 3.053c-0.339 -0.509 -0.509 -1.187 -0.848 -1.866c-0.17 1.866 -1.018 3.731 -2.035 5.258l-2.035 -1.866c0 0 0 -0.17 0.17 -0.17c0.678 -1.018 1.187 -2.205 1.357 -3.392c0.17 -1.357 0.339 -2.714 0.339 -4.071c0 -2.205 0 -4.41 0 -6.615L192.34 10.855zM199.124 18.997c-0.509 -0.339 -0.848 -0.678 -1.357 -1.018s-0.848 -0.678 -1.357 -1.018c-0.509 -0.339 -1.018 -0.678 -1.527 -1.018c0 1.866 0 3.731 -0.17 5.597c0.17 -0.17 0.339 -0.17 0.509 -0.17c1.527 -0.678 3.053 -1.527 4.58 -2.205c0.678 -0.339 0.678 -0.339 0.678 -1.187c0 0 0 -0.17 0 -0.17L199.124 18.997M196.41 14.587l4.071 2.714V13.23c-0.678 0 -5.088 0 -5.428 0v2.375L196.41 14.587"/>
        <path id="Path_189" class="st1" d="M74.629 5.936C74.629 9.159 71.915 11.873 68.693 11.873C65.47 11.873 62.756 9.159 62.756 5.936S65.47 0 68.693 0C71.915 0 74.629 2.714 74.629 5.936L74.629 5.936"/>
        <path id="Path_190" class="st1" d="M165.202 11.703c-1.357 2.035 -3.392 3.562 -5.597 4.41l-1.696 -1.866c0.509 -0.339 1.187 -0.509 1.866 -0.848C160.792 12.721 161.979 11.873 162.827 10.686c0.17 -0.339 0.339 -0.678 0.678 -1.018h-5.258c-0.17 -0.678 -0.17 -1.527 0 -2.205h1.696l0 -0.17c-0.678 -0.339 -1.187 -0.848 -1.866 -1.187c1.527 -1.696 2.714 -3.731 3.223 -5.936l2.544 0.509l-0.678 1.866c0.509 0 1.018 0 1.527 0s1.018 0 1.527 0h4.58v2.205h-4.071v2.375c0.509 0 1.018 0 1.527 0s1.018 0 1.696 0h1.696v2.205h-4.749c-0.17 0 -0.17 0 -0.339 0c0 0 -0.17 0.17 -0.17 0.17C167.916 10.855 169.612 11.873 171.308 12.89l-1.866 1.866L165.202 11.703M161.979 4.919l-1.696 2.375c1.187 0 2.375 0 3.562 0c0 -0.848 0 -1.527 0 -2.375L161.979 4.919z"/>
        <path id="Path_191" class="st1" d="M149.937 13.908v8.481c-0.339 0.17 -12.382 0.17 -14.078 0C135.689 22.05 135.689 15.095 135.689 13.908C136.029 13.908 149.428 13.908 149.937 13.908M138.403 20.184c0.678 0 8.311 0 8.65 0V16.283c-0.17 0 -0.17 0 -0.17 0l-8.311 0c0 0 0 0 0 0c0 0 0 0 0 0L138.403 20.184z"/>
        <path id="Path_192" class="st1" d="M183.35 13.399h-10.686c0 -1.187 0 -2.375 0 -3.562s0 -2.375 0 -3.562V2.714h10.686c0 0 0 0 0 0c0 0 0 0 0 0c0 3.392 0 6.954 0 10.346C183.35 13.23 183.35 13.23 183.35 13.399M180.467 10.855V5.258c-0.509 0 -4.919 0 -5.258 0v2.714c0 0.509 0 1.018 0 1.357c0 0.509 0 0.848 0 1.357H180.467z"/>
        <path id="Path_193" class="st1" d="M112.283 27.477l-0.848 -2.714c1.187 0 2.205 0 3.392 0c0.17 0 0.339 0 0.509 0c0.17 0 0.339 -0.17 0.509 -0.509c0 -0.17 0 -0.339 0 -0.509c0 -7.633 0 -15.095 0 -22.728V0.509h2.714c0.17 0.17 0 0.339 0 0.509c0 5.258 0 10.516 0 15.774c0 2.375 0 4.749 0 7.124c0 0.509 0 1.018 -0.17 1.696c-0.17 0.509 -0.509 1.018 -1.018 1.357c-0.509 0.17 -1.018 0.339 -1.696 0.509C114.488 27.647 113.301 27.647 112.283 27.477"/>
        <path id="Path_194" class="st1" d="M205.569 0.509h2.714c0 0.339 0 0.848 0 1.187c0 0.339 0 0.848 0 1.187v1.357h7.633v2.375h-7.633c0 0.17 0 0.17 0 0.339c0 0.848 0 1.527 0 2.375c0 0.339 0 0.509 0.17 0.848c0 0.339 0.339 0.678 0.678 0.678c0.17 0 0.17 0 0.339 0c2.035 0 3.901 0 5.936 0c0.509 0 1.018 0 1.696 -0.17l0.339 2.375c-0.509 0.17 -1.018 0.17 -1.357 0.17c-2.375 0 -4.749 0 -6.954 0c-0.509 0 -0.848 0 -1.357 -0.17c-1.018 -0.17 -1.696 -1.018 -1.866 -2.035c0 -0.339 -0.17 -0.678 -0.17 -1.187c0 -3.053 0 -5.936 0 -8.989C205.569 0.678 205.569 0.678 205.569 0.509"/>
        <path id="Path_195" class="st1" d="M100.749 0.509l2.544 1.018c0 0.339 -0.339 0.509 -0.339 0.848c2.035 1.357 4.24 2.544 6.276 4.071l-1.527 2.375c-2.035 -1.527 -4.24 -2.883 -6.445 -4.41l-2.375 2.205c0.678 0 1.187 0 1.866 0h3.562c0 0.339 0 0.509 0 0.848s0 0.509 0 0.848c-0.339 0.17 -5.428 0.17 -6.106 0V7.124c-1.357 1.187 -2.883 2.035 -4.58 2.883l-1.527 -2.544C95.661 5.936 98.544 3.562 100.749 0.509"/>
        <path id="Path_196" class="st1" d="M192 9.498l-0.848 -2.544c1.018 -0.509 1.866 -1.357 2.544 -2.375c1.018 -1.187 1.866 -2.544 2.714 -4.071c0 0 0 -0.17 0.17 -0.17l2.883 0.848c-1.187 1.866 -2.375 3.562 -3.901 5.088c1.696 0 3.392 -0.17 5.088 -0.339l-0.678 -1.357L198.954 3.392l2.205 -0.848c1.357 2.035 2.714 4.41 3.731 6.615L202.516 10.177l-0.848 -1.866c-1.696 0.17 -3.223 0.339 -4.919 0.509C195.223 8.82 193.697 9.159 192 9.498"/>
        <path id="Path_197" class="st1" d="M110.248 3.562h2.544v16.283H110.248C110.248 19.505 110.248 4.071 110.248 3.562"/>
        <path id="Path_198" class="st1" d="M99.223 39.011h-1.866c-0.17 -0.17 -0.17 -0.509 -0.339 -0.678c-0.339 -0.509 -0.848 -0.848 -1.357 -0.848c-0.509 0 -1.187 0.339 -1.357 0.848c-0.17 0.339 -0.339 0.848 -0.339 1.357c0 0.678 0 1.357 0 2.035c0 0.509 0.17 1.018 0.339 1.357c0.17 0.509 0.678 0.848 1.187 0.678c0.17 0 0.17 0 0.339 0c0.509 0 0.848 -0.339 1.018 -0.678c0.17 -0.17 0.17 -0.339 0.339 -0.678h1.866c0 0.678 -0.17 1.187 -0.509 1.696c-0.509 0.678 -1.187 1.187 -2.035 1.187c-0.678 0.17 -1.357 0.17 -1.866 0c-1.018 -0.17 -1.866 -1.018 -2.205 -2.035c-0.17 -0.678 -0.339 -1.187 -0.339 -1.866c0 -0.678 0 -1.357 0 -2.035c0 -0.678 0.17 -1.357 0.509 -1.866c0.509 -0.848 1.187 -1.357 2.205 -1.527c0.678 -0.17 1.357 -0.17 1.866 0c1.187 0.339 2.035 1.357 2.375 2.544C99.223 38.671 99.223 38.841 99.223 39.011"/>
        <path id="Path_199" class="st1" d="M117.711 45.456h-1.696l0 -0.339c-0.509 0.509 -1.357 0.678 -2.205 0.509c-1.018 -0.17 -1.696 -1.018 -1.696 -2.035c-0.17 -1.018 0.509 -1.866 1.527 -2.035c0.339 -0.17 0.678 -0.17 1.187 -0.17c0.339 0 0.848 0 1.187 0c0 -0.17 0 -0.339 0 -0.509c0 -0.509 -0.17 -0.848 -0.848 -0.848c-0.339 0 -0.678 0 -0.848 0c-0.339 0 -0.509 0.17 -0.678 0.509c-0.509 -0.17 -0.848 -0.509 -1.187 -0.848c0.339 -0.678 1.018 -1.018 1.696 -1.018c0.678 -0.17 1.357 -0.17 2.035 0c0.848 0 1.696 0.678 1.696 1.696c0 0.339 0 0.509 0 0.848c0 1.357 0 2.544 0 3.901L117.711 45.456M116.014 42.742c-0.509 0 -1.018 0 -1.527 0c-0.339 0 -0.509 0.17 -0.509 0.509c-0.17 0.339 0 0.678 0.339 0.678c0.339 0.17 0.848 0.17 1.357 0c0.339 -0.17 0.509 -0.509 0.509 -0.848C116.014 43.081 116.014 42.912 116.014 42.742"/>
        <path id="Path_200" class="st1" d="M176.396 42.573c-0.17 0.509 0.17 1.187 0.678 1.357c0.678 0.339 1.357 0 1.866 -0.509l1.187 0.848c-0.17 0.339 -0.509 0.678 -0.848 0.848c-0.509 0.17 -1.187 0.339 -1.696 0.339c-1.527 0.17 -2.883 -1.018 -2.883 -2.544c0 0 0 -0.17 0 -0.17c0 -0.678 0 -1.357 0 -2.035c0.17 -1.357 1.187 -2.205 2.544 -2.205c0.339 0 0.848 0 1.187 0.17c0.848 0.17 1.357 0.678 1.696 1.527c0.17 0.848 0.339 1.527 0.17 2.375L176.396 42.573zM178.262 41.216c0 -0.848 -0.339 -1.187 -1.018 -1.187c-0.678 0 -1.018 0.509 -1.018 1.187H178.262z"/>
        <path id="Path_201" class="st1" d="M155.025 42.403h-3.731c-0.17 0.509 0 1.018 0.509 1.357c0.678 0.339 1.357 0.17 1.866 -0.339l1.357 0.848c-0.17 0.339 -0.509 0.678 -0.848 0.848c-0.509 0.339 -1.187 0.339 -1.866 0.339c-1.527 0 -2.714 -1.187 -2.714 -2.544c-0.17 -0.848 0 -1.696 0.17 -2.544c0.17 -1.018 1.018 -1.696 2.035 -1.866c0.509 -0.17 1.018 0 1.527 0c0.848 0.17 1.527 0.678 1.696 1.527C155.025 40.876 155.025 41.724 155.025 42.403M151.124 41.216h2.035c0.17 -0.509 -0.17 -1.018 -0.678 -1.187c0 0 -0.17 0 -0.17 0C151.633 40.028 151.124 40.368 151.124 41.216"/>
        <path id="Path_202" class="st1" d="M129.074 42.573h-3.731c-0.17 0.509 0 1.018 0.509 1.357c0.678 0.339 1.357 0.17 1.866 -0.339c0.17 0 0.17 0.17 0.339 0.17c0.339 0.17 0.678 0.339 0.848 0.678c-0.339 0.509 -0.678 0.848 -1.357 1.018c-0.678 0.17 -1.357 0.17 -2.035 0c-1.018 -0.17 -1.866 -1.018 -2.035 -2.035c-0.17 -1.018 -0.17 -2.035 0 -3.053c0.17 -1.018 1.018 -1.696 2.035 -1.866c0.509 -0.17 1.018 0 1.527 0c1.018 0.17 1.696 1.018 1.866 2.035C129.074 41.216 129.074 41.894 129.074 42.573M127.209 41.216c0 -0.678 -0.339 -1.187 -0.848 -1.187c-0.678 0 -1.018 0.339 -1.018 1.187H127.209z"/>
        <path id="Path_203" class="st1" d="M187.082 45.456h-1.866v-0.509c0 -1.187 0 -2.375 0 -3.562c0 -0.17 0 -0.339 0 -0.509c0 -0.509 -0.339 -0.848 -0.848 -0.848c-0.509 -0.17 -1.018 0.17 -1.187 0.509c-0.17 0.339 -0.17 0.678 -0.17 0.848c0 1.187 0 2.205 0 3.392v0.509c-0.339 0 -0.509 0 -0.848 0c-0.339 0 -0.509 0 -0.848 0v-6.784h1.696L183.181 39.011c0 0 0 0 0.17 0c0.678 -0.509 1.527 -0.678 2.205 -0.339c0.848 0.17 1.357 0.848 1.527 1.696c0 0.17 0.17 0.509 0.17 0.678C187.082 42.403 187.082 43.929 187.082 45.456"/>
        <path id="Path_204" class="st1" d="M202.516 38.671h1.696l0 0.339c0.509 -0.339 1.018 -0.509 1.696 -0.509c0.339 0 0.848 0.17 1.187 0.339c0.509 0.17 0.848 0.678 1.018 1.187c0.17 0.339 0.17 0.678 0.17 1.018c0 1.527 0 2.883 0 4.41c-0.509 0 -1.187 0 -1.696 0c0 -0.17 0 -0.339 0 -0.339c0 -1.187 0 -2.375 0 -3.392c0 -0.17 0 -0.339 0 -0.509c-0.17 -0.509 -0.339 -0.848 -0.848 -0.848c-0.509 -0.17 -1.018 0.17 -1.187 0.678c0 0.17 -0.17 0.509 -0.17 0.678c0 1.187 0 2.205 0 3.392v0.509c-0.509 0 -1.187 0 -1.696 0C202.516 45.117 202.347 39.52 202.516 38.671"/>
        <path id="Path_205" class="st1" d="M111.265 42.403h-3.731c-0.17 0.509 0.17 1.018 0.509 1.357c0.678 0.339 1.357 0.17 1.866 -0.339l0.678 0.509l0.678 0.509c-0.17 0.339 -0.509 0.678 -0.848 0.848c-0.339 0.17 -0.678 0.339 -1.018 0.339c-0.509 0 -1.018 0 -1.527 0c-1.018 -0.17 -1.866 -1.018 -2.035 -2.035c0 -0.339 -0.17 -0.678 -0.17 -0.848c0 -0.678 0 -1.357 0.17 -2.035c0.17 -1.018 1.018 -1.866 2.035 -1.866c0.509 -0.17 1.018 0 1.527 0c0.848 0.17 1.357 0.678 1.696 1.357C111.265 40.707 111.265 41.555 111.265 42.403M109.4 41.216c-0.17 -0.848 -0.339 -1.187 -1.018 -1.187c-0.678 0 -0.848 0.339 -1.018 1.187H109.4z"/>
        <path id="Path_206" class="st1" d="M137.894 45.456v-6.784h1.696l0 0.339c0.339 -0.17 0.678 -0.339 1.018 -0.339c0.678 -0.17 1.187 0 1.696 0.17c0.678 0.339 1.018 1.018 1.018 1.696c0 0.339 0 0.848 0 1.187c0 1.018 0 2.205 0 3.223v0.509h-1.696c0 -0.17 0 -0.339 0 -0.339c0 -1.187 0 -2.375 0 -3.392c0 -0.339 0 -0.509 0 -0.678c0 -0.509 -0.509 -0.848 -1.018 -0.678c-0.509 0 -0.848 0.17 -1.018 0.678c0 0.17 -0.17 0.509 -0.17 0.678c0 1.187 0 2.375 0 3.562v0.339h-0.848L137.894 45.456"/>
        <path id="Path_207" class="st1" d="M188.269 44.438l1.357 -1.018c0.509 0.509 1.187 0.678 1.866 0.509c0.17 0 0.17 0 0.339 0c0.17 0 0.339 -0.17 0.339 -0.339c0 -0.17 0 -0.339 -0.17 -0.509c-0.17 0 -0.509 -0.17 -0.678 -0.17c-0.509 -0.17 -1.018 -0.17 -1.357 -0.339c-1.018 -0.339 -1.527 -1.527 -1.187 -2.544c0 0 0 0 0 0c0.17 -0.678 0.848 -1.187 1.527 -1.357c0.678 -0.17 1.527 -0.17 2.375 0c0.509 0.17 1.018 0.509 1.357 1.018c-0.339 0.339 -0.848 0.678 -1.357 0.848c-0.339 -0.339 -0.848 -0.509 -1.357 -0.509c-0.17 0 -0.339 0 -0.339 0c-0.17 0 -0.339 0.17 -0.339 0.339c0 0.17 0.17 0.339 0.339 0.509c0.17 0 0.339 0.17 0.509 0.17c0.339 0.17 0.848 0.17 1.187 0.339c0.17 0 0.17 0 0.339 0.17c0.848 0.339 1.357 1.187 1.187 2.035c0 0.848 -0.678 1.527 -1.527 1.696c-0.848 0.17 -1.866 0.17 -2.883 0C188.947 45.117 188.439 44.777 188.269 44.438"/>
        <path id="Path_208" class="st1" d="M214.898 39.689l-1.357 0.848c0 0 -0.17 -0.17 -0.17 -0.17c-0.339 -0.339 -0.848 -0.509 -1.357 -0.339c-0.339 0.17 -0.678 0.339 -0.678 0.848c0 0.339 -0.17 0.509 -0.17 0.848c0 0.509 0 0.848 0 1.357c0 0.509 0.339 0.848 0.848 1.018c0.509 0.17 1.018 0 1.357 -0.339c0 0 0.17 -0.17 0.17 -0.17c0.509 0.339 0.848 0.509 1.357 0.848c-0.339 0.678 -0.848 1.018 -1.527 1.187c-0.678 0.17 -1.187 0.17 -1.866 0c-1.187 -0.339 -1.866 -1.187 -2.035 -2.375c0 -0.678 0 -1.357 0 -2.205c0 -1.187 1.018 -2.205 2.205 -2.375c0.678 -0.17 1.357 -0.17 1.866 0.17C214.05 38.841 214.559 39.18 214.898 39.689"/>
        <path id="Path_209" class="st1" d="M118.728 40.198v-1.527l0.848 0v-1.527h1.866v1.527h1.357v1.527h-1.187c0 0.17 0 0.17 0 0.339c0 0.848 0 1.696 0 2.714c0 0.678 0.17 0.848 0.848 0.848c0.17 0 0.339 0 0.509 0v1.527c-0.678 0.17 -1.357 0.17 -2.205 -0.17c-0.509 -0.17 -0.848 -0.678 -0.848 -1.187c0 -0.339 -0.17 -0.678 -0.17 -1.018c0 -0.848 0 -1.696 0 -2.375v-0.509H118.728z"/>
        <path id="Path_210" class="st1" d="M145.357 37.145h1.696c0.17 0.509 0 1.018 0 1.527h1.187v1.527h-1.187c0 0.17 0 0.17 0 0.17c0 0.848 0 1.866 0 2.714c0 0.509 0.17 0.678 0.848 0.678c0.17 0 0.339 0 0.509 0c0 0.17 0 0.509 0 0.848c0 0.17 0 0.509 0 0.848c-0.678 0 -1.357 0 -2.035 -0.17c-0.509 -0.17 -0.848 -0.509 -1.018 -1.018c0 -0.339 -0.17 -0.509 -0.17 -0.848c0 -0.848 0 -1.866 0 -2.714c0 -0.17 0 -0.339 0 -0.509h-0.848v-1.527l0.848 0L145.357 37.145z"/>
        <path id="Path_211" class="st1" d="M136.029 45.456h-1.866v-9.329h1.018h0.848L136.029 45.456z"/>
        <path id="Path_212" class="st1" d="M200.651 45.456h-1.866v-9.329c0.678 0 1.187 0 1.866 0V45.456z"/>
        <path id="Path_213" class="st1" d="M160.283 36.127h1.696c0 0.17 0 0.339 0 0.509c0 2.035 0 4.071 0 6.106c0 0.17 0 0.339 0 0.678c0 0.509 0.17 0.678 0.678 0.678c0 0 0.17 0 0.17 0v1.527c-0.678 0.17 -1.187 0 -1.866 -0.339c-0.509 -0.339 -0.848 -0.848 -0.848 -1.527c0 0 0 -0.17 0 -0.17c0 -2.375 0 -4.58 0 -6.954C160.113 36.297 160.113 36.297 160.283 36.127"/>
        <path id="Path_214" class="st1" d="M158.926 43.929v1.527c-0.678 0 -1.187 0 -1.866 -0.339c-0.509 -0.339 -0.848 -0.848 -0.848 -1.527c0 -0.17 0 -0.17 0 -0.339c0 -2.375 0 -4.58 0 -6.954c0 -0.17 0 -0.17 0 -0.339h1.696c0 0.17 0 0.339 0 0.509c0 2.035 0 4.071 0 5.936c0 0.17 0 0.339 0 0.509c0 0.509 0.17 0.678 0.678 0.678C158.757 43.929 158.926 43.929 158.926 43.929"/>
        <path id="Path_215" class="st1" d="M100.41 38.671h1.696l0 0.339c0.848 -0.848 2.205 -0.678 2.883 0c0.17 0.17 0.17 0.339 0.339 0.509l-1.357 1.018c0 0 -0.17 -0.17 -0.17 -0.17c-0.17 -0.339 -0.678 -0.509 -1.018 -0.339c-0.339 0.17 -0.678 0.509 -0.678 0.848c0 0.339 0 0.678 0 1.018c0 1.018 0 2.205 0 3.223c0 0 0 0.17 0 0.17h-1.696C100.41 45.117 100.24 39.18 100.41 38.671"/>
        <path id="Path_216" class="st1" d="M130.092 6.445c-1.187 -1.696 -2.375 -3.223 -3.731 -4.749l2.035 -1.357c1.357 1.357 2.714 2.883 3.901 4.58L130.092 6.445"/>
        <path id="Path_217" class="st1" d="M164.354 38.671h1.696c0.17 0.339 0.17 5.597 0 6.784c-0.509 0 -1.187 0 -1.696 0C164.184 45.117 164.184 39.18 164.354 38.671"/>
        <path id="Path_218" class="st1" d="M166.05 37.823h-1.866c0 -0.509 0 -1.018 0 -1.696c0.678 0 1.187 0 1.866 0V37.823z"/>
      </g>
    </g>
  </g>
</svg>
