<svg id="Group_333" data-name="Group 333" xmlns="http://www.w3.org/2000/svg" xmlns:xlink="http://www.w3.org/1999/xlink" width="213.745" height="40.907" viewBox="0 0 213.745 40.907">
  <defs>
    <clipPath id="clip-path">
      <rect id="Rectangle_186" data-name="Rectangle 186" width="213.745" height="40.907" fill="#273545"/>
    </clipPath>
  </defs>
  <g id="Group_332" data-name="Group 332" transform="translate(0 0)" clip-path="url(#clip-path)">
    <path id="Path_421" data-name="Path 421" d="M342.392,17c-1.116-.42-2.308-.644-3.465-.958h-1.956c-.426.092-.85.192-1.278.275a12.024,12.024,0,0,0-2.509,22.849c1.1.451,2.285.7,3.431,1.047h2.49a3.471,3.471,0,0,1,.581-.184A11.989,11.989,0,0,0,342.392,17m-4.49,18.3a7.171,7.171,0,1,1,.056-14.341,7.171,7.171,0,0,1-.056,14.341" transform="translate(-155.893 -7.672)" fill="#273545"/>
    <path id="Path_422" data-name="Path 422" d="M100.887,33.366a7.02,7.02,0,0,1-.474-9.818,6.689,6.689,0,0,1,4.766-2.264,6.857,6.857,0,0,1,6.315,3.344l4.286-2.175c-.162-.283-.269-.491-.4-.687a11.783,11.783,0,0,0-19.782.1,15.834,15.834,0,0,0-1.906,5.1v2.666c.1.364.2.725.285,1.091a11.766,11.766,0,0,0,13.556,9.164,11.52,11.52,0,0,0,8.45-6.1l-4.261-2.238c-3.176,4.719-8.194,4.158-10.84,1.821" transform="translate(-44.816 -7.861)" fill="#273545"/>
    <path id="Path_423" data-name="Path 423" d="M382.3,35.75c-.045,0-.089-.064-.228-.171V34.331c0-5.478-.015-10.957.015-16.434,0-.814-.247-1.108-1.063-1.057a21.1,21.1,0,0,1-2.843,0c-.868-.063-1.095.25-1.091,1.1.03,7.018.014,14.036.012,21.054v1.018h17.009V35.746q-5.905,0-11.811,0" transform="translate(-180.363 -8.05)" fill="#273545"/>
    <path id="Path_424" data-name="Path 424" d="M299.725,27.685c-.246-.113-.485-.241-.783-.39.431-.3.78-.522,1.1-.776a5.184,5.184,0,0,0,1.841-5.243,4.6,4.6,0,0,0-3.51-4.022,14.557,14.557,0,0,0-3.485-.522c-3.434-.068-6.87-.027-10.305-.025-.288,0-.577.024-.942.04V39.9a1.481,1.481,0,0,0,.313.079c4.086-.015,8.181.137,12.255-.1,3.881-.225,7.273-2.524,6.816-7.422a5.458,5.458,0,0,0-3.3-4.776m-11.078-6.619c0-.169.356-.471.545-.47,1.83.009,3.664,0,5.487.138,1.64.123,2.394,1.108,2.376,2.816a2.506,2.506,0,0,1-2.438,2.544c-1.945.085-3.9.021-5.995.021,0-1.756-.017-3.4.024-5.05m9.193,13.126a2.375,2.375,0,0,1-2.117,1.667c-2.322.1-4.65.031-7.062.031v-6.2c.276-.026.527-.07.778-.071,1.748-.007,3.5-.019,5.243,0a3.23,3.23,0,0,1,3.157,4.572" transform="translate(-135.669 -7.984)" fill="#273545"/>
    <path id="Path_425" data-name="Path 425" d="M157.973,24.857H147.09v-8.42h-4.854V39.765h4.884V29.922h10.906v9.822h4.927V16.573h-4.981Z" transform="translate(-68.032 -7.862)" fill="#273545"/>
    <path id="Path_426" data-name="Path 426" d="M248.29,30.97h10.518V26.422H248.264V21.131h1.109c3.317,0,6.635-.01,9.952,0,.58,0,.974-.063.921-.8a14.309,14.309,0,0,1,0-2.307c.08-.877-.19-1.169-1.116-1.16-4.916.043-9.834.015-14.751.015-.318,0-.636.03-1.016.049V40.175h17.983V35.961H248.29Z" transform="translate(-116.403 -8.066)" fill="#273545"/>
    <path id="Path_427" data-name="Path 427" d="M203.637,17.4a1.058,1.058,0,0,0-.783-.483c-1.242-.052-2.488.015-3.73-.04a1.059,1.059,0,0,0-1.168.784c-1.631,3.666-3.309,7.313-4.968,10.967-1.718,3.784-3.433,7.57-5.231,11.536,1.42,0,2.689-.026,3.955.013a.9.9,0,0,0,.98-.655c.559-1.268,1.2-2.5,1.768-3.766a1.125,1.125,0,0,1,1.2-.78q5.108.057,10.216,0a1.062,1.062,0,0,1,1.123.743q.879,1.934,1.819,3.842c.114.232.354.566.545.572,1.456.048,2.915.026,4.359.026.012-.164.025-.2.014-.22Q208.7,28.661,203.637,17.4m-6.613,12.924,3.964-9.132,3.838,9.132Z" transform="translate(-89.806 -8.07)" fill="#273545"/>
    <path id="Path_428" data-name="Path 428" d="M20.123,0C9.077-.085.056,8.9,0,20.48a20.458,20.458,0,0,0,40.909.477C40.914,8.821,32.135.093,20.123,0m.654,37.851c-10.2,0-17.732-7.8-17.668-17.342C3.177,10.343,10.321,3.284,20.378,3.03a17.114,17.114,0,0,1,17.463,17.3,17.279,17.279,0,0,1-17.064,17.52" transform="translate(0 0)" fill="#273545"/>
    <path id="Path_429" data-name="Path 429" d="M39.693,29.652c-.029-1.006-.3-1.3-1.32-1.309-3.037-.038-6.076-.01-9.113-.016-.6,0-.976.234-.978.873-.008,3.327-.007,6.654-.014,9.981,0,.634.316.906.932.905,3.183,0,6.365-.008,9.548,0,.784,0,.968-.439.963-1.108-.012-1.519,0-3.038,0-4.557h0c0-1.591.033-3.183-.012-4.774" transform="translate(-13.521 -13.547)" fill="#273545"/>
  </g>
</svg>
