<svg id="Group_257" data-name="Group 257" xmlns="http://www.w3.org/2000/svg" xmlns:xlink="http://www.w3.org/1999/xlink" width="101.661" height="75.599" viewBox="0 0 101.661 75.599">
  <defs>
    <clipPath id="clip-path">
      <rect id="Rectangle_162" data-name="Rectangle 162" width="101.661" height="75.599" fill="#273545"/>
    </clipPath>
  </defs>
  <g id="Group_257-2" data-name="Group 257" clip-path="url(#clip-path)">
    <path id="Path_304" data-name="Path 304" d="M99.726,57.132a22.909,22.909,0,0,1-.3,3.673,17.279,17.279,0,0,1-.5,2.184,18.494,18.494,0,0,1-.993,2.482,11.7,11.7,0,0,1-1.092,1.886,17.953,17.953,0,0,1-2.879,3.276,17.206,17.206,0,0,1-1.489,1.291,17.636,17.636,0,0,1-2.68,1.688A20.335,20.335,0,0,1,84.537,75.3a25.61,25.61,0,0,1-4.765.3,18.543,18.543,0,0,1-6.552-1.489,18.189,18.189,0,0,1-3.773-2.283,16.024,16.024,0,0,1-3.078-3.772,17.476,17.476,0,0,1-1.986-5.361,13.444,13.444,0,0,1-.4-2.879,13,13,0,0,1,0-2.78,24.1,24.1,0,0,1,.794-4.666,15.8,15.8,0,0,1,2.78-5.262A17.571,17.571,0,0,1,78.679,40.95a17.772,17.772,0,0,1,2.283-.2,13.254,13.254,0,0,1,1.986,0,19.173,19.173,0,0,1,7.446,1.489,16.915,16.915,0,0,1,3.474,1.886,9.886,9.886,0,0,1,2.085,1.986A12.328,12.328,0,0,1,97.642,48.4a21.534,21.534,0,0,1,1.489,3.475,16.37,16.37,0,0,1,.6,3.177ZM84.438,58.423c0-.1-.1-.1-.2-.2a4.413,4.413,0,0,1-1.092-.794,2.508,2.508,0,0,1-.893-2.68,2.077,2.077,0,0,1,.7-1.291,4.139,4.139,0,0,1,1.489-1.092,20.479,20.479,0,0,1,3.475-1.191c.5-.1.893-.2,1.39-.3.1,0,.2-.1.1-.2a14.159,14.159,0,0,0-1.489-1.092,8.425,8.425,0,0,0-2.184-.893,12.72,12.72,0,0,0-2.68-.5,15.961,15.961,0,0,0-3.078.1,9.714,9.714,0,0,0-3.673,1.39,11.973,11.973,0,0,0-2.382,2.085,8.638,8.638,0,0,0-1.589,2.978c-.1.4-.2.893-.3,1.291s-.1.794-.2,1.191a8.468,8.468,0,0,0,0,1.588c0,.3.1.6.1.893,0,.4,0,.4.4.3,1.092-.2,2.283-.4,3.375-.6.993-.2,1.986-.3,2.879-.5.6-.1,1.191-.1,1.787-.2.6,0,1.191-.1,1.886-.1.6,0,1.191-.1,1.787-.1,0,0,.3,0,.4-.1m-3.177,9.63a8.537,8.537,0,0,0,1.589-.1,10.094,10.094,0,0,0,2.482-.6,10.828,10.828,0,0,0,3.971-2.68,10.978,10.978,0,0,0,2.581-5.659,4.832,4.832,0,0,0,.1-1.191,12.655,12.655,0,0,0-.1-1.986,13.222,13.222,0,0,0-.5-1.886c-.1-.3-.1-.3-.4-.2-1.092.3-2.283.5-3.375.893a13.259,13.259,0,0,0-1.787.7.346.346,0,0,0-.2.1l.2.2c.3.2.695.4.993.6a3.72,3.72,0,0,1,1.291,1.191,2.383,2.383,0,0,1-.1,2.78A3.528,3.528,0,0,1,86.424,61.3a18.951,18.951,0,0,1-3.276.6,6.107,6.107,0,0,0-1.291.1c-.794.1-1.489.1-2.283.2-.893.1-1.688.2-2.581.3a25.389,25.389,0,0,1-2.68.5,6.7,6.7,0,0,1-1.39.2c-.2,0-.2.1-.1.3s.2.3.3.5a6.545,6.545,0,0,0,2.085,2.283,8.479,8.479,0,0,0,2.482,1.291,14.772,14.772,0,0,0,3.574.5M18.617,74.606a15.342,15.342,0,0,0,3.078-.4,18.391,18.391,0,0,0,4.368-1.787,14.2,14.2,0,0,0,1.986-1.39,12.782,12.782,0,0,0,1.688-1.589,19.758,19.758,0,0,0,1.886-2.383,14.006,14.006,0,0,0,1.886-3.872,16.422,16.422,0,0,0,.893-5.361,9.6,9.6,0,0,0-.1-2.383,13.542,13.542,0,0,0-.993-3.574,13.367,13.367,0,0,0-3.673-4.765,12.875,12.875,0,0,0-5.262-2.482,12.5,12.5,0,0,0-2.78-.5c-.893,0-1.688-.1-2.581-.1-1.39,0-2.78-.1-4.169,0a19.123,19.123,0,0,1-2.383.1,17.618,17.618,0,0,1-2.283.1,55.681,55.681,0,0,1-5.758,0H2.832c-.3,0-.3.1-.3.3v.794c0,.3,0,.3.3.3a5.677,5.677,0,0,0,1.291.1,4.223,4.223,0,0,1,1.092.2,1.055,1.055,0,0,1,.794.893c.1.7.1,1.39.2,2.085a9.631,9.631,0,0,1,.1,1.688,27.89,27.89,0,0,1,.1,2.879v9.928c-.1,1.092-.1,2.085-.1,3.177v1.589a27.891,27.891,0,0,1-.1,2.879,4.818,4.818,0,0,0-.1,1.191.816.816,0,0,1-.4.6,1.378,1.378,0,0,0-.4.3,4.1,4.1,0,0,1-1.092.695.516.516,0,0,0-.2.4v.4c0,.3,0,.3.3.3h.1A20.743,20.743,0,0,1,6.9,74.8h3.375c.893,0,1.787.1,2.681.1h2.581a11.16,11.16,0,0,0,3.078-.3M61.255,20.053a3.775,3.775,0,0,1-1.688.794l-.3.3c0,.2-.2.3-.4.3-.1.1-.3.2-.4.3a.347.347,0,0,1-.2.1l-1.191.3a6.062,6.062,0,0,0-1.291.3c-.2,0-.3,0-.4.1a6.063,6.063,0,0,1-1.191.5.533.533,0,0,0-.4.3.546.546,0,0,1-.5.3.546.546,0,0,0-.5.3c-.1.1-.2.2-.3.2-.2.1-.4.1-.5.2a2.082,2.082,0,0,1-1.092.4.725.725,0,0,0-.695.6c0,.2-.1.3-.3.4l-.6.3a.776.776,0,0,0-.4.4.213.213,0,0,1-.2.2A2.027,2.027,0,0,0,47.257,27.8c0,.1,0,.2-.1.2a2.344,2.344,0,0,1-.893.6,1.41,1.41,0,0,0-.6.2.67.67,0,0,0-.4.6.365.365,0,0,1-.1.3c-.2.1-.3.3-.5.4a7.837,7.837,0,0,1-1.489,1.191c-.2.2-.2.2,0,.4a16.062,16.062,0,0,0,1.787.993,17.961,17.961,0,0,0,6.056,1.39,18.659,18.659,0,0,0,4.07-.2,15.632,15.632,0,0,0,8.836-4.17,14.715,14.715,0,0,0,3.078-3.872,16.132,16.132,0,0,0,1.092-2.283,21.487,21.487,0,0,0,.695-2.382,24.323,24.323,0,0,0,.4-3.773c0-.6-.1-1.092-.1-1.688a15.547,15.547,0,0,0-.5-2.978,13.174,13.174,0,0,0-1.886-4.17,21.818,21.818,0,0,0-1.986-2.283,11.864,11.864,0,0,0-3.773-2.482,18.689,18.689,0,0,0-7.346-1.489H52.122a12.338,12.338,0,0,0-2.681.3,17.481,17.481,0,0,0-5.361,1.986,15.849,15.849,0,0,0-3.475,2.78,14.916,14.916,0,0,0-2.283,3.276A18.427,18.427,0,0,0,37.132,13.9a15.568,15.568,0,0,0-.5,3.673,18.177,18.177,0,0,0,.2,3.276c.1.4.1.794.2,1.191.1.2.1.2.3.1.6-.4,1.191-.695,1.787-1.092a8.254,8.254,0,0,1,1.191-.794,8.642,8.642,0,0,0,.993-.695l.3-.3a1.266,1.266,0,0,1,.695-.5,19.287,19.287,0,0,0,2.184-.794h.2a.848.848,0,0,0,.695,0c.3-.1.5-.2.794-.3a10.856,10.856,0,0,0,1.688-.5c.3,0,.5-.1.5-.4,0-.2.1-.4.3-.4a10.765,10.765,0,0,0,1.886-.794,12.125,12.125,0,0,1,1.688-.695l.1-.1a5.528,5.528,0,0,1,.794-.6,4.016,4.016,0,0,1,.893-.5,22.5,22.5,0,0,1,2.482-.6,1.413,1.413,0,0,0,.6-.2.515.515,0,0,1,.4-.2,2.748,2.748,0,0,0,.893-.1c.794-.2,1.688-.3,2.482-.5h.1a.1.1,0,0,1-.1.1c-.5.3-1.092.6-1.688.894a5.994,5.994,0,0,1-1.886.6c-.1,0-.2,0-.2.1-.2.1-.3.2-.5.3a2.6,2.6,0,0,1-.794.3.752.752,0,0,0-.4.2l-.6.3c-.3.1-.5.2-.794.3a.364.364,0,0,0-.3.1.9.9,0,0,1-.695.3,1.128,1.128,0,0,0-.794.3,1.782,1.782,0,0,1-.695.5,2.627,2.627,0,0,0-.6.5c-.1,0-.1.1-.2.1l-.3.3c-.1.1-.1.2-.2.2a8.8,8.8,0,0,1-1.688.794,1.194,1.194,0,0,0-.5.5l-.3.3a4.836,4.836,0,0,0-.695.3l-.893.3a6.815,6.815,0,0,1-.794.3l-1.191.3a.427.427,0,0,0-.4.4.263.263,0,0,1-.3.3,8.727,8.727,0,0,1-1.489.5,6.41,6.41,0,0,0-.695.2,3.022,3.022,0,0,0-.695.5c-.1.1-.2.1-.3.2-.3.2-.695.4-.993.6a14.521,14.521,0,0,1-1.291.893c-.3.1-.3.2-.2.5a10.56,10.56,0,0,0,.695,1.886c.1.3.2.3.4.1.5-.5,1.092-.893,1.589-1.39a8.734,8.734,0,0,0,.993-.794l.695-.7c.1-.2.3-.2.5-.3.2,0,.3-.1.4-.1a.546.546,0,0,0,.5-.3c.1-.1.2-.2.3-.2.5-.2.993-.6,1.489-.794a13.49,13.49,0,0,1,2.78-1.092,2.162,2.162,0,0,0,.794-.5.546.546,0,0,1,.5-.3c.1,0,.3-.1.4-.1a.758.758,0,0,0,.5-.2c.1,0,.2-.1.3-.1a2,2,0,0,0,1.092-.3,5,5,0,0,1,1.291-.5,5.591,5.591,0,0,0,1.191-.4,6.072,6.072,0,0,0,1.191-.5,4.323,4.323,0,0,1,.695-.4c.2-.1.5-.2.6-.5l.1-.1c.1-.1.1-.1.1-.2,0-.2.1-.2.3-.3a6.415,6.415,0,0,0,1.291-.4,5.687,5.687,0,0,1,1.39-.4c.1,0,.2-.1.3-.2a.347.347,0,0,1,.2-.1c.3-.1.6-.1.893-.2h.6c.3-.1.7-.2,1.092-.3.1,0,.1-.1.2-.1a5.738,5.738,0,0,1,1.39-.5c.1,0,.1-.1.2,0l-.6.3c-.4.2-.894.5-1.291.695a14.064,14.064,0,0,1-1.787.794c-1.191.5-2.482.993-3.772,1.39-.1.1-.2.1-.3.2q-.3.149,0,.3c.1.1.3.1.4.2s.1.1,0,.2-.2.2-.3.2c-.794.3-1.588.5-2.382.794a.9.9,0,0,0-.6.6c0,.1-.2.2-.3.2a5.66,5.66,0,0,0-1.291.1c-.5.1-.993.2-1.39.3a1.2,1.2,0,0,0-.695.695c-.1.2-.1.2-.3.2a.477.477,0,0,0-.6.2c-.1.1-.2.2-.3.2-.3,0-.5.1-.695.1a1.413,1.413,0,0,0-.6.2c0,.1-.1.1-.2.1a12,12,0,0,0-1.787.5,1.411,1.411,0,0,1-.6.2,1.006,1.006,0,0,0-.695.4,2.077,2.077,0,0,1-.6.4c-.1.1-.2.1-.3.2a.317.317,0,0,0-.3.3.66.66,0,0,1-.4.5L41.6,25.712A15.277,15.277,0,0,1,39.712,27.4c-.3.2-.3.2-.1.5a6,6,0,0,0,.695.993,16.9,16.9,0,0,0,1.886,1.886c.2.2.2.2.5,0l.2-.2a5.979,5.979,0,0,0,.893-1.291,2.341,2.341,0,0,1,.794-.893,2.675,2.675,0,0,0,.695-.794,1.2,1.2,0,0,1,.695-.7c.1-.1.2-.1.3-.2a.19.19,0,0,0,.1-.3c0-.1,0-.2.1-.2s.1-.1.2-.1c.5-.3,1.092-.6,1.589-.893a.214.214,0,0,0,.2-.2c0-.2.2-.2.3-.3a4.148,4.148,0,0,0,.993-.4c.1,0,.2-.1.3-.2a1.224,1.224,0,0,1,.794-.4,1.41,1.41,0,0,0,.6-.2,10.756,10.756,0,0,1,1.886-.794c.1,0,.2-.1.3,0a.3.3,0,0,0,.4,0,16.536,16.536,0,0,1,1.589-.6c.6-.2,1.191-.3,1.787-.5a1.435,1.435,0,0,1,.7-.2,1.916,1.916,0,0,0,.993-.3c.794-.4,1.588-.695,2.382-1.092a.6.6,0,0,1,.4-.1c-.1.1-.2.2-.6.1M29.286,29.286c0,.3-.1.6-.1.894a1.935,1.935,0,0,1-.1.794,2.171,2.171,0,0,1-.3.5,1.6,1.6,0,0,1-.695.4,8.691,8.691,0,0,1-1.589.2h-.5c-.2,0-.2,0-.2-.2s.1-.5.1-.695c.1-.5.1-.993.2-1.489.1-.695.2-1.489.3-2.184s.2-1.489.3-2.283c0-.3,0-.3-.2-.3H25.415c-.2,0-.2.1-.3.3-.2.993-.4,1.986-.7,2.978-.2.6-.3,1.191-.5,1.787s-.1.5-.695.7c-1.291.2-2.482.4-3.773.5a4.831,4.831,0,0,1-1.191.1,12.653,12.653,0,0,1-1.986.1c-1.39,0-2.879.1-4.368,0a14.661,14.661,0,0,0-2.085-.1h-.2c-.4,0-.4,0-.4-.4V27.9c0-5.758-.1-11.417,0-17.175,0-2.085,0-4.269.1-6.354a8.688,8.688,0,0,1,.2-1.589c.1-.2.2-.5.4-.6a1.783,1.783,0,0,1,.893-.4c.4,0,.894-.1,1.291-.1a8.541,8.541,0,0,1,1.589-.1c.3,0,.3-.1.3-.3V.2c0-.2,0-.2-.2-.2A7.51,7.51,0,0,1,12.31.1a12.009,12.009,0,0,1-1.886.1A21.589,21.589,0,0,1,7.843.3H5.659A17.568,17.568,0,0,0,3.375.2,27.89,27.89,0,0,0,.5.1H.3C0,.1,0,.1,0,.3V1.29c0,.3,0,.3.3.3a19.123,19.123,0,0,1,2.382.1,2,2,0,0,1,1.092.3,1.05,1.05,0,0,1,.6.7,16.226,16.226,0,0,1,.2,2.184c.1,1.191.1,2.383.1,3.574,0,5.758.1,11.417,0,17.076-.1.794,0,1.588-.1,2.383s-.1,1.489-.2,2.283a1.929,1.929,0,0,1-.893,1.39,7.4,7.4,0,0,1-1.191.7c-.1,0-.2.2-.2.3v.7c0,.3,0,.3.3.3a7.534,7.534,0,0,1,1.489-.1c.893,0,1.886-.1,2.78-.1h1.39c1.886.1,3.773,0,5.659.1,1.191.1,2.482.1,3.673.1,1.191.1,2.482,0,3.673.1h.794a21.016,21.016,0,0,0,3.475-.2s.1-.1.1,0a.365.365,0,0,0,.3.1c.893,0,1.787-.1,2.68-.1h.6a20.748,20.748,0,0,1,2.482-.1c1.588,0,3.077,0,4.666.1h1.886a.214.214,0,0,0,.2-.2v-.993a.214.214,0,0,0-.2-.2h-.695c-.5,0-.993-.1-1.489-.1a1.689,1.689,0,0,1-.695-.1,1.4,1.4,0,0,1-.993-1.092,15.023,15.023,0,0,1-.2-2.978c0-6.354-.1-12.608,0-18.962,0-1.092.1-2.085.2-3.177a1.319,1.319,0,0,1,.794-.993c.2,0,.3-.1.5-.1a9.627,9.627,0,0,1,1.688-.1h.794c.3,0,.3-.1.3-.3V3.474c0-.4,0-.4-.5-.4-1.092,0-2.085.1-3.177.1q-3.574.149-7.148,0H25.713c-.2,0-.2,0-.2.2V4.07c0,.4,0,.4.4.4a17.621,17.621,0,0,1,2.283.1,1.314,1.314,0,0,1,1.291,1.291c0,.7.1,1.489.1,2.283.1.993.1,1.986.1,2.979,0,4.467.1,9.034,0,13.5v1.39a12.271,12.271,0,0,1-.4,3.276M73.863,7.942,75.154,9.53c.4.4.7.893,1.092,1.291.4.5.893,1.092,1.291,1.589.6.794,1.29,1.489,1.886,2.283.5.695,1.092,1.39,1.688,2.085.6.794,1.29,1.489,1.886,2.283l1.787,2.085c.6.794,1.29,1.489,1.886,2.284l1.787,2.085c.7.794,1.291,1.688,1.986,2.482.4.5.893,1.092,1.29,1.589.5.5.993,1.092,1.489,1.688s.993,1.191,1.589,1.787a1.131,1.131,0,0,0,.6.3c.695.1,1.39.4,2.184.6.4.1.4.1.4-.3V31.272c-.1-2.184-.1-4.368-.1-6.552V17.571c0-2.482-.1-4.865,0-7.346a16.082,16.082,0,0,0,.1-2.184,14.658,14.658,0,0,1,.1-2.085,2.748,2.748,0,0,1,.1-.893c0-.4.4-.7.794-.794a6.718,6.718,0,0,1,1.39-.2,4.072,4.072,0,0,1,1.092-.1.214.214,0,0,0,.2-.2V2.779a.213.213,0,0,0-.2-.2h-.2c-.7,0-1.39.1-2.085.1h-6.85c-.2,0-.2,0-.2.2v.893c0,.3,0,.3.3.3a5.659,5.659,0,0,0,1.29.1,4.98,4.98,0,0,1,1.191.2.941.941,0,0,1,.794.893c0,.5.1.993.1,1.489,0,.4.1.794.1,1.191a19.128,19.128,0,0,1,.1,2.383V27.4c0,.1.1.2,0,.2h-.1a5.956,5.956,0,0,1-.794-.794c-.6-.7-1.291-1.489-1.986-2.283s-1.39-1.688-2.085-2.482c-.794-.993-1.588-1.886-2.382-2.879s-1.489-1.886-2.283-2.78c-.695-.893-1.489-1.787-2.184-2.68-.7-.794-1.39-1.688-2.085-2.482-.794-.893-1.489-1.886-2.283-2.78-.5-.695-1.092-1.39-1.688-2.085a38.95,38.95,0,0,1-2.482-3.177.546.546,0,0,0-.5-.3,13.3,13.3,0,0,1-1.985.1c-1.588,0-3.276-.1-4.864-.1h-.4a.214.214,0,0,0-.2.2V4.07a.213.213,0,0,0,.2.2h.2a10.209,10.209,0,0,1,1.688.1,2.174,2.174,0,0,1,1.39.794,2,2,0,0,1,.4,1.291V27.3a22.439,22.439,0,0,1-.1,2.581c-.1.3-.1.695-.2,1.092a.842.842,0,0,1-.695.794,2.336,2.336,0,0,1-.794.2c-.6,0-1.092.1-1.688.1-.3,0-.3.1-.3.3v.794c0,.3,0,.3.3.3H69.2a17.568,17.568,0,0,1,2.283-.1h4.269a6.1,6.1,0,0,0,1.39.1c.3,0,.3-.1.3-.3v-.794c0-.3,0-.3-.3-.3-.5,0-.894-.1-1.291-.1a4.98,4.98,0,0,1-1.191-.2,1.212,1.212,0,0,1-.794-.893,24.4,24.4,0,0,1-.2-2.681v-.4a9.083,9.083,0,0,1-.1-1.688V8.14c-.1-.1,0-.2,0-.3,0,.1.1.1.3.1m-20.1,56.736H42.55a.263.263,0,0,0-.3.3c-.3.695-.5,1.291-.794,1.986-.5,1.092-.893,2.184-1.39,3.276a6.6,6.6,0,0,0-.6,1.986.939.939,0,0,0,.6,1.092h.1a4.984,4.984,0,0,0,1.191.2c.5,0,.993.1,1.39.1.3,0,.3,0,.3.3V74.8c0,.2,0,.3-.3.3-.6,0-1.291-.1-1.886-.1h-.1c-1.39,0-2.78-.1-4.17-.1a24.186,24.186,0,0,0-2.68.1h-.695c-.2,0-.2,0-.2-.2V73.712c0-.2,0-.2.2-.2a6.107,6.107,0,0,0,1.291-.1,2.816,2.816,0,0,0,1.291-.4.992.992,0,0,0,.4-.5,7.9,7.9,0,0,0,.794-1.589c.4-.893.893-1.886,1.291-2.78.6-1.291,1.191-2.681,1.787-3.971.5-1.191,1.092-2.382,1.589-3.673l1.688-3.773c.6-1.291,1.191-2.68,1.787-3.971l1.191-2.68c.794-1.886,1.589-3.872,2.383-5.758,0-.2.2-.3.4-.3H50a.515.515,0,0,1,.4.2c.4.993.893,1.985,1.291,2.978.794,1.886,1.589,3.872,2.482,5.758.5,1.291,1.092,2.482,1.588,3.772.7,1.688,1.489,3.375,2.184,5.063.5,1.291,1.092,2.482,1.589,3.772l2.085,4.765c.3.6.5,1.092.794,1.688.1.1.2.3.3.4a2.206,2.206,0,0,0,1.291.794c.4,0,.893.1,1.291.1.3,0,.3,0,.3.3v.993c0,.2,0,.3-.3.2a6.1,6.1,0,0,1-1.39-.1h-.4c-1.092-.1-2.283-.1-3.375-.1-.893,0-1.787.1-2.681.1h-.6c-.794,0-1.589.1-2.283.1h-.3c-.2,0-.2,0-.2-.2v-.993c0-.2,0-.3.3-.3a9.626,9.626,0,0,0,1.688-.1,5,5,0,0,0,1.191-.2c.1,0,.2-.1.3-.1a.671.671,0,0,0,.4-.6,2,2,0,0,0-.3-1.092c-.695-1.787-1.489-3.673-2.184-5.46-.1-.3-.3-.695-.4-.993,0-.2-.2-.3-.4-.2a3.444,3.444,0,0,1-.894.1M48.507,50.084c-.1.1-.1.1-.1.2-.5,1.092-.893,2.184-1.39,3.276s-.893,2.085-1.39,3.177c-.6,1.489-1.291,2.978-1.886,4.467a6.918,6.918,0,0,0-.5,1.291c-.1.2-.1.2.2.3H53.57c.4,0,.4,0,.2-.4-.1-.2-.1-.3-.2-.5-.993-2.482-1.986-4.865-3.078-7.346-.6-1.39-1.191-2.879-1.787-4.269l-.2-.2" transform="translate(0 0.001)" fill="#273545"/>
  </g>
</svg>
