<svg id="Group_263" data-name="Group 263" xmlns="http://www.w3.org/2000/svg" xmlns:xlink="http://www.w3.org/1999/xlink" width="91.846" height="72.558" viewBox="0 0 91.846 72.558">
  <defs>
    <clipPath id="clip-path">
      <rect id="Rectangle_178" data-name="Rectangle 178" width="91.846" height="72.558" fill="none"/>
    </clipPath>
  </defs>
  <g id="Group_262" data-name="Group 262" clip-path="url(#clip-path)">
    <path id="Path_353" data-name="Path 353" d="M38.551,86.826a1.491,1.491,0,0,0-1.124-1.443l-12.7-3.259A7.484,7.484,0,0,1,19.9,78.238a13.463,13.463,0,0,0-.177,2.131,14.611,14.611,0,0,0,2.459,7.947H37.055a1.493,1.493,0,0,0,1.5-1.49" transform="translate(-14.473 -57.407)" fill="#014794"/>
    <path id="Path_354" data-name="Path 354" d="M102.6,36.871V16.007H93.568l2.779-5.961h15.226C104.386,3.983,92.283,0,78.56,0S52.734,3.983,45.547,10.047h19.39l-2.78,5.961H46.988a1.49,1.49,0,0,0-.372,2.934l12.7,3.259a7.454,7.454,0,0,1,5.4,9.009c-.016.064-.033.128-.051.192a7.478,7.478,0,0,1-7.191,5.469H46.8c7.294,5.5,18.8,9.053,31.763,9.053s24.468-3.552,31.763-9.053Zm-12.023,0H79.894a13.412,13.412,0,1,1,0-26.824H93.355l-2.779,5.961H80.283a7.451,7.451,0,1,0,0,14.9H93.355Zm-.648-16.144-2.559,5.465H77.109l2.536-5.465Z" transform="translate(-33.38 -0.001)" fill="#014794"/>
    <path id="Path_355" data-name="Path 355" d="M289.4,60.119V80.9c5.055-3.847,8.056-8.636,8.056-13.829a14.284,14.284,0,0,0-1.87-6.955Z" transform="translate(-212.344 -44.112)" fill="#014794"/>
    <path id="Path_356" data-name="Path 356" d="M181.519,204.577h9.162a2.706,2.706,0,0,0-2.7-2.48H168.814v2.48h9.731v.819h-9.7v4.473h2.778V207.23h6.921v.666h-5.61v1.932h13.625a1.892,1.892,0,0,0-1.679-1.932h-3.361v-.666h6.547v2.638h2.7V205.4h-9.243Z" transform="translate(-123.867 -148.289)" fill="#014794"/>
    <rect id="Rectangle_174" data-name="Rectangle 174" width="2.164" height="9.911" transform="translate(77.213 61.138)" fill="#014794"/>
    <rect id="Rectangle_175" data-name="Rectangle 175" width="2.164" height="9.911" transform="translate(69.889 61.138)" fill="#014794"/>
    <rect id="Rectangle_176" data-name="Rectangle 176" width="20.163" height="2.543" transform="translate(0 69.994)" fill="#014794"/>
    <rect id="Rectangle_177" data-name="Rectangle 177" width="19.065" height="2.542" transform="translate(0.549 54.345)" fill="#014794"/>
    <path id="Path_357" data-name="Path 357" d="M7.615,233.532v2.48h17.1a2.707,2.707,0,0,0-2.7-2.48Z" transform="translate(-5.588 -171.354)" fill="#014794"/>
    <path id="Path_358" data-name="Path 358" d="M100.963,221.311H98.474l-1.857,11.1H90.856l-1.96-11.1H86.4l1.962,11.1H83.492v2.529h20.28v-2.529H99.107Z" transform="translate(-61.262 -162.387)" fill="#014794"/>
    <path id="Path_359" data-name="Path 359" d="M102.511,200.715H95.856V198.35H93.111v2.365H84.953V203.2h19.978a2.459,2.459,0,0,0-2.42-2.481" transform="translate(-62.334 -145.539)" fill="#014794"/>
    <path id="Path_360" data-name="Path 360" d="M268.419,202.1h-7.178v2.48h9.873a2.705,2.705,0,0,0-2.695-2.48" transform="translate(-191.686 -148.289)" fill="#014794"/>
    <path id="Path_361" data-name="Path 361" d="M268.419,216.137h-7.178v2.48h3.848V230.7h2.477v-12.08h3.549a2.705,2.705,0,0,0-2.695-2.48" transform="translate(-191.686 -158.59)" fill="#014794"/>
    <path id="Path_362" data-name="Path 362" d="M182.505,242.669a.5.5,0,0,1-.118-.379l0-.429h6.847a1.987,1.987,0,0,0,1.986-1.987v-3.093a1.987,1.987,0,0,0-1.986-1.987H171.925a1.987,1.987,0,0,0-1.987,1.987v3.093a1.987,1.987,0,0,0,1.987,1.987h7.4l0,.644h0a2.7,2.7,0,0,0,2.7,2.246h9.277V242.8h-8s-.619.037-.788-.133m-.114-6.311h5.93v1.078h-5.93Zm0,2.682h5.93l-.022,1.073-5.908.015Zm-3.071,1.088h-6.384V239.04h6.384Zm0-2.692h-6.384v-1.078h6.384Z" transform="translate(-124.692 -172.28)" fill="#014794"/>
    <path id="Path_363" data-name="Path 363" d="M311.554,218.39v-2.615l.014-.014a1.981,1.981,0,0,0,1.848-1.973v-9.22a1.987,1.987,0,0,0-1.987-1.987h-7.118a1.987,1.987,0,0,0-1.986,1.987v9.22a1.986,1.986,0,0,0,1.986,1.986h.417l-2.445,4.979h2.744l2.47-4.979h1.42v4.972l4.024,0,.7-2.361Zm-.575-5.082h-6.162v-1.516h6.162Zm0-3.479h-6.162v-1.516h6.162Zm0-3.478h-6.162v-1.517h6.162Z" transform="translate(-221.8 -148.645)" fill="#014794"/>
  </g>
</svg>
