<svg xmlns="http://www.w3.org/2000/svg" width="117" height="77.713" viewBox="0 0 117 77.713">
  <g id="Group_161" data-name="Group 161" transform="translate(-175 -4959.819)">
    <g id="Ellipse_7" data-name="Ellipse 7" transform="translate(175 4995)" fill="#c1fc65" stroke="#4573b8" stroke-width="4">
      <ellipse cx="58.5" cy="18" rx="58.5" ry="18" stroke="none"/>
      <ellipse cx="58.5" cy="18" rx="56.5" ry="16" fill="none"/>
    </g>
    <path id="Path_442" data-name="Path 442" d="M-7.69-43.579l6.921.051a15.954,15.954,0,0,0,4.922-.743,13.358,13.358,0,0,0,4.1-2.128A11.147,11.147,0,0,0,11.2-49.86a13.39,13.39,0,0,0,1.512-4.794,8.792,8.792,0,0,0-1.615-6.9q-2.128-2.589-6.486-2.692a12.1,12.1,0,0,0-4.05.564A11.008,11.008,0,0,0-2.82-61.908a10.487,10.487,0,0,0-2.512,2.82A11.222,11.222,0,0,0-6.768-55.32l-13.843.1a19.434,19.434,0,0,1,2.692-8.818A22.069,22.069,0,0,1-12-70.5a26.376,26.376,0,0,1,8.049-3.948,29.606,29.606,0,0,1,9.177-1.23,29.97,29.97,0,0,1,8.818,1.461,19.966,19.966,0,0,1,7.075,4,16.952,16.952,0,0,1,4.512,6.486,19.574,19.574,0,0,1,1.128,8.921,16.844,16.844,0,0,1-1.41,5.614,18.7,18.7,0,0,1-2.974,4.614,23.379,23.379,0,0,1-4.153,3.717,33.028,33.028,0,0,1-4.948,2.871,14.736,14.736,0,0,1,4.178,2.922,15.062,15.062,0,0,1,2.794,3.922,16.548,16.548,0,0,1,1.487,4.666,21.453,21.453,0,0,1,.205,5.153,22.059,22.059,0,0,1-2.9,9.741,23.35,23.35,0,0,1-6.383,7.05A27.825,27.825,0,0,1,3.871-.282,33.783,33.783,0,0,1-6.2,1.025,27.358,27.358,0,0,1-15.048-.564a20.2,20.2,0,0,1-7-4.23,18.569,18.569,0,0,1-4.512-6.665,21.7,21.7,0,0,1-1.436-8.9L-14.2-20.3a9.8,9.8,0,0,0,2.307,7.05,9.258,9.258,0,0,0,6.921,2.845,13.959,13.959,0,0,0,4.819-.718,12.964,12.964,0,0,0,4.025-2.2,11.931,11.931,0,0,0,2.922-3.512,12.526,12.526,0,0,0,1.461-4.64q.667-5.229-1.9-8.024t-7.69-2.948L-9.639-32.5Z" transform="translate(238 5036)" fill="#3574be"/>
    <path id="_3_-_Outline" data-name="3 - Outline" d="M4.557-76.181c.226,0,.456,0,.683.007a30.608,30.608,0,0,1,8.965,1.486,20.554,20.554,0,0,1,7.25,4.1A17.525,17.525,0,0,1,26.1-63.914a20.156,20.156,0,0,1,1.162,9.147,17.422,17.422,0,0,1-1.453,5.781,19.284,19.284,0,0,1-3.053,4.737,23.989,23.989,0,0,1-4.241,3.8,33.585,33.585,0,0,1-4.12,2.474,14.856,14.856,0,0,1,3.42,2.56A15.631,15.631,0,0,1,20.7-31.368a17.124,17.124,0,0,1,1.532,4.806,22.053,22.053,0,0,1,.21,5.272,22.653,22.653,0,0,1-2.965,9.957,23.955,23.955,0,0,1-6.519,7.2A28.452,28.452,0,0,1,4.009.2,34.363,34.363,0,0,1-5.5,1.532c-.235,0-.475,0-.711-.007a27.984,27.984,0,0,1-9.005-1.62,20.79,20.79,0,0,1-7.169-4.335,19.15,19.15,0,0,1-4.633-6.842,22.29,22.29,0,0,1-1.472-9.1l.015-.486,14.788.055-.012.51a9.366,9.366,0,0,0,2.18,6.7A8.819,8.819,0,0,0-4.96-10.908,13.52,13.52,0,0,0-.315-11.6a12.526,12.526,0,0,0,3.871-2.12,11.488,11.488,0,0,0,2.8-3.367,12.087,12.087,0,0,0,1.4-4.457c.423-3.321-.172-5.885-1.769-7.626s-4.072-2.687-7.331-2.786l-8.891-.055L-8.11-44.082l7.344.054A15.523,15.523,0,0,0,4-44.747a12.922,12.922,0,0,0,3.95-2.048A10.7,10.7,0,0,0,10.765-50.1a12.954,12.954,0,0,0,1.453-4.614,8.353,8.353,0,0,0-1.505-6.515C9.4-62.832,7.342-63.676,4.6-63.741c-.106,0-.213,0-.318,0A11.544,11.544,0,0,0,.718-63.2a10.561,10.561,0,0,0-3.232,1.688,10.037,10.037,0,0,0-2.393,2.687,10.776,10.776,0,0,0-1.371,3.6l-.078.4-14.793.11.039-.54a20.017,20.017,0,0,1,2.763-9.042,22.668,22.668,0,0,1,6.055-6.6,27,27,0,0,1,8.2-4.023A30.182,30.182,0,0,1,4.557-76.181ZM-5.5.532A33.363,33.363,0,0,0,3.732-.762a27.456,27.456,0,0,0,8.636-4.179,22.961,22.961,0,0,0,6.248-6.9,21.666,21.666,0,0,0,2.828-9.524,21.056,21.056,0,0,0-.2-5.034A16.125,16.125,0,0,0,19.8-30.925a14.633,14.633,0,0,0-2.7-3.793,14.307,14.307,0,0,0-4.038-2.822l-.95-.455.953-.448a32.683,32.683,0,0,0,4.873-2.828A22.988,22.988,0,0,0,22-44.908,18.285,18.285,0,0,0,24.9-49.4a16.425,16.425,0,0,0,1.367-5.449,19.171,19.171,0,0,0-1.094-8.694,16.534,16.534,0,0,0-4.379-6.3,19.561,19.561,0,0,0-6.9-3.9,29.611,29.611,0,0,0-8.672-1.436c-.22,0-.443-.007-.662-.007A29.183,29.183,0,0,0-3.8-73.964a26,26,0,0,0-7.9,3.873,21.673,21.673,0,0,0-5.789,6.315,18.839,18.839,0,0,0-2.575,8.055l12.893-.1A11.624,11.624,0,0,1-5.758-59.35,11.033,11.033,0,0,1-3.126-62.3,11.557,11.557,0,0,1,.41-64.152a12.659,12.659,0,0,1,4.216-.588c3.044.072,5.352,1.039,6.86,2.874a9.306,9.306,0,0,1,1.725,7.272v.006a13.948,13.948,0,0,1-1.571,4.971A11.7,11.7,0,0,1,8.56-46,13.918,13.918,0,0,1,4.306-43.8a16.527,16.527,0,0,1-5.075.768l-6.5-.048L-9.044-33l7.726.048c3.542.106,6.248,1.153,8.044,3.11s2.486,4.8,2.025,8.425A13.075,13.075,0,0,1,7.23-16.6a12.484,12.484,0,0,1-3.044,3.657,13.522,13.522,0,0,1-4.178,2.29A14.415,14.415,0,0,1-4.654-9.9q-.164,0-.329,0H-4.99a9.775,9.775,0,0,1-7.277-3.012A10.134,10.134,0,0,1-14.705-19.8l-12.8-.048a21.022,21.022,0,0,0,1.41,8.206A18.158,18.158,0,0,0-21.7-5.158a19.8,19.8,0,0,0,6.827,4.125A26.987,26.987,0,0,0-6.193.526C-5.964.53-5.732.532-5.5.532Z" transform="translate(238 5036)" fill="rgba(0,0,0,0)"/>
  </g>
</svg>
