<?xml version="1.0" encoding="utf-8"?>
<!-- Generator: Adobe Illustrator 26.1.0, SVG Export Plug-In . SVG Version: 6.00 Build 0)  -->
<svg version="1.1" id="圖層_1" xmlns="http://www.w3.org/2000/svg" xmlns:xlink="http://www.w3.org/1999/xlink" x="0px" y="0px"
	 viewBox="0 0 117 138" style="enable-background:new 0 0 117 138;" xml:space="preserve">
<style type="text/css">
	.st0{fill:#C1FC65;}
	.st1{fill:none;stroke:#4573B8;stroke-width:4;}
	.st2{fill:#3574BE;}
</style>
<g id="Group_161" transform="translate(-175 -4959.819)">
	<g id="Ellipse_7" transform="translate(175 4995)">
		<ellipse class="st0" cx="58.5" cy="48.1" rx="58.5" ry="18"/>
		<ellipse class="st1" cx="58.5" cy="48.1" rx="56.5" ry="16"/>
	</g>
	<path id="Path_442" class="st2" d="M230.3,5022.6l6.9,0.1c1.7,0,3.3-0.2,4.9-0.7c1.5-0.5,2.9-1.2,4.1-2.1c1.2-0.9,2.2-2.1,2.9-3.5
		c0.8-1.5,1.3-3.1,1.5-4.8c0.5-2.4-0.1-4.9-1.6-6.9c-1.4-1.7-3.6-2.6-6.5-2.7c-1.4,0-2.7,0.1-4,0.6c-1.2,0.4-2.4,1-3.4,1.8
		c-1,0.8-1.9,1.7-2.5,2.8c-0.7,1.2-1.2,2.4-1.4,3.8l-13.8,0.1c0.2-3.1,1.1-6.1,2.7-8.8c1.5-2.5,3.5-4.7,5.9-6.5
		c2.4-1.8,5.2-3.1,8-3.9c3-0.9,6.1-1.3,9.2-1.2c3,0,6,0.5,8.8,1.5c2.6,0.8,5,2.2,7.1,4c2,1.8,3.5,4,4.5,6.5c1.1,2.8,1.4,5.9,1.1,8.9
		c-0.1,1.9-0.6,3.8-1.4,5.6c-0.8,1.7-1.8,3.2-3,4.6c-1.2,1.4-2.6,2.6-4.2,3.7c-1.6,1.1-3.2,2.1-4.9,2.9c1.6,0.7,3,1.7,4.2,2.9
		c1.1,1.1,2.1,2.5,2.8,3.9c0.7,1.5,1.2,3,1.5,4.7c0.3,1.7,0.3,3.4,0.2,5.2c-0.2,3.4-1.2,6.8-2.9,9.7c-1.6,2.8-3.8,5.2-6.4,7
		c-2.7,1.9-5.6,3.4-8.8,4.3c-3.3,0.9-6.7,1.4-10.1,1.3c-3,0-6-0.6-8.8-1.6c-2.6-0.9-5-2.4-7-4.2c-2-1.9-3.5-4.1-4.5-6.7
		c-1.1-2.8-1.6-5.9-1.4-8.9l13.8,0.1c-0.2,2.6,0.6,5.1,2.3,7.1c1.8,1.9,4.3,2.9,6.9,2.8c1.6,0,3.3-0.2,4.8-0.7
		c1.5-0.5,2.8-1.2,4-2.2c1.2-1,2.2-2.2,2.9-3.5c0.8-1.4,1.3-3,1.5-4.6c0.4-3.5-0.2-6.2-1.9-8s-4.3-2.8-7.7-2.9l-8.3-0.1
		L230.3,5022.6z"/>
</g>
</svg>
