<svg xmlns="http://www.w3.org/2000/svg" width="117" height="76.68" viewBox="0 0 117 76.68">
  <g id="Group_160" data-name="Group 160" transform="translate(-170 -4632.82)">
    <g id="Ellipse_6" data-name="Ellipse 6" transform="translate(170 4668)" fill="#c1fc65" stroke="#4573b8" stroke-width="4">
      <ellipse cx="58.5" cy="18" rx="58.5" ry="18" stroke="none"/>
      <ellipse cx="58.5" cy="18" rx="56.5" ry="16" fill="none"/>
    </g>
    <path id="Path_441" data-name="Path 441" d="M18.765,0H-30.659l1.589-10.254L-2.1-35.735q1.794-1.743,3.9-3.743a47.3,47.3,0,0,0,3.973-4.281A31.431,31.431,0,0,0,9-48.5a14.553,14.553,0,0,0,1.718-5.127,12.68,12.68,0,0,0-.077-3.871,8.21,8.21,0,0,0-1.282-3.2,7.057,7.057,0,0,0-2.512-2.23,8.688,8.688,0,0,0-3.768-.948,13.159,13.159,0,0,0-5.2.872,11.025,11.025,0,0,0-3.9,2.615,13.114,13.114,0,0,0-2.589,4,19.383,19.383,0,0,0-1.333,5.024l-13.894.051a24.188,24.188,0,0,1,2.9-10,26.878,26.878,0,0,1,6.357-7.742,28.389,28.389,0,0,1,8.793-4.973A28.961,28.961,0,0,1,4.512-75.674a24.894,24.894,0,0,1,8.665,1.641A18.37,18.37,0,0,1,19.764-69.7a17.511,17.511,0,0,1,4,6.716,21.825,21.825,0,0,1,.9,8.793,22.256,22.256,0,0,1-2.307,8.28,38.687,38.687,0,0,1-4.768,7.28,67.916,67.916,0,0,1-6.1,6.46Q8.2-29.121,5.178-26.3L-10.767-11.433H20.61Z" transform="translate(233 4709)" fill="#3574be"/>
    <path id="_2_-_Outline" data-name="2 - Outline" d="M19.19.5H-31.243l1.7-11,27.09-25.6c1.191-1.157,2.5-2.417,3.9-3.744a47.023,47.023,0,0,0,3.931-4.236A31.078,31.078,0,0,0,8.56-48.743a14.123,14.123,0,0,0,1.66-4.952,12.233,12.233,0,0,0-.073-3.714,7.752,7.752,0,0,0-1.2-3.012,6.594,6.594,0,0,0-2.338-2.073,8.232,8.232,0,0,0-3.547-.888,12.72,12.72,0,0,0-5,.835,10.579,10.579,0,0,0-3.722,2.5A12.676,12.676,0,0,0-8.153-56.2a18.974,18.974,0,0,0-1.3,4.9l-.057.433-14.871.055.04-.539a24.8,24.8,0,0,1,2.957-10.2,27.5,27.5,0,0,1,6.475-7.884A29.018,29.018,0,0,1-5.96-74.5,29.5,29.5,0,0,1,3.915-76.18c.2,0,.4,0,.606.006A25.508,25.508,0,0,1,13.36-74.5a18.95,18.95,0,0,1,6.765,4.45,18.087,18.087,0,0,1,4.113,6.905,22.421,22.421,0,0,1,.921,8.993A22.855,22.855,0,0,1,22.8-45.687a39.368,39.368,0,0,1-4.829,7.374,68.734,68.734,0,0,1-6.146,6.507c-2.178,2.025-4.3,4-6.306,5.87l-15.016,14H21.2Zm-49.266-1H18.339l1.684-10.433H-12.036L4.837-26.667c2.006-1.87,4.128-3.845,6.307-5.871A67.733,67.733,0,0,0,17.2-38.95a38.367,38.367,0,0,0,4.707-7.186,21.861,21.861,0,0,0,2.255-8.1,21.434,21.434,0,0,0-.873-8.594A17.1,17.1,0,0,0,19.4-69.354a17.958,17.958,0,0,0-6.412-4.214A24.513,24.513,0,0,0,4.5-75.174c-.194,0-.392-.006-.586-.006a28.5,28.5,0,0,0-9.542,1.618,28.021,28.021,0,0,0-8.639,4.886,26.5,26.5,0,0,0-6.24,7.6,23.667,23.667,0,0,0-2.79,9.254l12.915-.048a19.767,19.767,0,0,1,1.307-4.72,13.672,13.672,0,0,1,2.688-4.15,11.573,11.573,0,0,1,4.071-2.733,13.524,13.524,0,0,1,5.086-.911l.315,0H3.1a9.22,9.22,0,0,1,3.983,1.008,7.584,7.584,0,0,1,2.687,2.387,8.744,8.744,0,0,1,1.361,3.4,13.237,13.237,0,0,1,.081,4.023,15.124,15.124,0,0,1-1.776,5.307,32.079,32.079,0,0,1-3.281,4.818,48.026,48.026,0,0,1-4.015,4.326c-1.394,1.326-2.7,2.584-3.893,3.739l0,0L-28.6-10.008Z" transform="translate(233 4709)" fill="rgba(0,0,0,0)"/>
  </g>
</svg>
