<?xml version="1.0" encoding="utf-8"?>
<!-- Generator: Adobe Illustrator 26.1.0, SVG Export Plug-In . SVG Version: 6.00 Build 0)  -->
<svg version="1.1" id="圖層_1" xmlns="http://www.w3.org/2000/svg" xmlns:xlink="http://www.w3.org/1999/xlink" x="0px" y="0px"
	 viewBox="0 0 117 138" style="enable-background:new 0 0 117 138;" xml:space="preserve">
<style type="text/css">
	.st0{fill:#C1FC65;}
	.st1{fill:none;stroke:#4573B8;stroke-width:4;}
	.st2{fill:#3574BE;}
</style>
<g id="Group_160" transform="translate(-170 -4632.82)">
	<g id="Ellipse_6" transform="translate(170 4668)">
		<ellipse class="st0" cx="58.5" cy="48.7" rx="58.5" ry="18"/>
		<ellipse class="st1" cx="58.5" cy="48.7" rx="56.5" ry="16"/>
	</g>
	<path id="Path_441" class="st2" d="M251.8,4739.7h-49.4l1.6-10.3l27-25.5c1.2-1.2,2.5-2.4,3.9-3.7c1.4-1.3,2.7-2.8,4-4.3
		c1.2-1.5,2.3-3.1,3.2-4.7c0.9-1.6,1.5-3.3,1.7-5.1c0.2-1.3,0.1-2.6-0.1-3.9c-0.2-1.1-0.6-2.2-1.3-3.2c-0.6-0.9-1.5-1.7-2.5-2.2
		c-1.2-0.6-2.5-0.9-3.8-0.9c-1.8-0.1-3.5,0.2-5.2,0.9c-1.5,0.6-2.8,1.5-3.9,2.6c-1.1,1.2-2,2.5-2.6,4c-0.7,1.6-1.1,3.3-1.3,5
		l-13.9,0.1c0.2-3.5,1.2-6.9,2.9-10c1.6-3,3.8-5.6,6.4-7.7c2.6-2.2,5.6-3.9,8.8-5c3.3-1.2,6.8-1.7,10.3-1.6c3,0,5.9,0.6,8.7,1.6
		c2.5,1,4.7,2.4,6.6,4.3c1.8,1.9,3.2,4.2,4,6.7c0.9,2.8,1.2,5.8,0.9,8.8c-0.2,2.9-1,5.7-2.3,8.3c-1.3,2.6-2.9,5-4.8,7.3
		c-1.9,2.3-3.9,4.4-6.1,6.5c-2.2,2-4.3,4-6.3,5.9l-15.9,14.9h31.4L251.8,4739.7z"/>
</g>
</svg>
